<svg width="21" height="17" viewBox="0 0 21 17" fill="none" xmlns="http://www.w3.org/2000/svg">
<path d="M10.4999 11.7C10.4188 11.7 10.3384 11.6835 10.2638 11.6515C10.1892 11.6195 10.1219 11.5727 10.0659 11.514L5.86591 7.114C5.78489 7.02901 5.73059 6.92211 5.70973 6.80655C5.68888 6.691 5.70239 6.57186 5.7486 6.46391C5.7948 6.35596 5.87166 6.26394 5.96966 6.19925C6.06766 6.13457 6.18249 6.10006 6.29991 6.1H8.49991V1.5C8.49991 1.23478 8.60527 0.98043 8.7928 0.792893C8.98034 0.605357 9.23469 0.5 9.49991 0.5H11.4999C11.7651 0.5 12.0195 0.605357 12.207 0.792893C12.3946 0.98043 12.4999 1.23478 12.4999 1.5V6.1H14.6999C14.8173 6.10006 14.9322 6.13457 15.0302 6.19925C15.1282 6.26394 15.205 6.35596 15.2512 6.46391C15.2974 6.57186 15.3109 6.691 15.2901 6.80655C15.2692 6.92211 15.2149 7.02901 15.1339 7.114L10.9339 11.514C10.8779 11.5727 10.8106 11.6195 10.736 11.6515C10.6614 11.6835 10.5811 11.7 10.4999 11.7Z" fill="#28A745"/>
<path d="M18.7004 16.5H2.30039C1.92909 16.5 1.57299 16.3525 1.31044 16.09C1.04789 15.8274 0.900391 15.4714 0.900391 15.1V14.7C0.900391 14.5162 0.936603 14.3341 1.00696 14.1643C1.07732 13.9944 1.18044 13.8401 1.31044 13.7101C1.44044 13.5801 1.59478 13.477 1.76463 13.4066C1.93449 13.3363 2.11654 13.3 2.30039 13.3H18.7004C19.0717 13.3 19.4278 13.4475 19.6903 13.7101C19.9529 13.9727 20.1004 14.3287 20.1004 14.7V15.1C20.1004 15.2839 20.0642 15.4659 19.9938 15.6358C19.9235 15.8057 19.8203 15.96 19.6903 16.09C19.5603 16.22 19.406 16.3231 19.2361 16.3935C19.0663 16.4638 18.8842 16.5 18.7004 16.5Z" fill="#28A745"/>
</svg>
