<svg width="29" height="24" viewBox="0 0 29 24" fill="none" xmlns="http://www.w3.org/2000/svg">
<path d="M19.7234 -0.000366211H16.6684C15.9454 -0.000366211 15.3594 0.585693 15.3594 1.30863C15.3594 2.03157 15.9454 2.61763 16.6684 2.61763H19.7234C20.4463 2.61763 21.0324 2.03157 21.0324 1.30863C21.0324 0.585693 20.4463 -0.000366211 19.7234 -0.000366211Z" fill="#28A745"/>
<path d="M7.72386 9.59973H3.36086C3.1917 9.60634 3.03167 9.6782 2.91433 9.80022C2.79699 9.92224 2.73145 10.0849 2.73145 10.2542C2.73145 10.4235 2.79699 10.5862 2.91433 10.7083C3.03167 10.8303 3.1917 10.9021 3.36086 10.9087H7.72486C7.89401 10.9021 8.05404 10.8303 8.17138 10.7083C8.28872 10.5862 8.35427 10.4235 8.35427 10.2542C8.35427 10.0849 8.28872 9.92224 8.17138 9.80022C8.05404 9.6782 7.89401 9.60634 7.72486 9.59973H7.72386Z" fill="#28A745"/>
<path d="M7.50581 15.4906C7.50581 15.3169 7.4368 15.1502 7.31396 15.0274C7.19113 14.9046 7.02453 14.8356 6.85081 14.8356H2.48781C2.31865 14.8422 2.15862 14.914 2.04128 15.036C1.92394 15.1581 1.8584 15.3208 1.8584 15.4901C1.8584 15.6594 1.92394 15.8221 2.04128 15.9441C2.15862 16.0661 2.31865 16.1379 2.48781 16.1446H6.85181C7.02518 16.1443 7.19137 16.0753 7.31396 15.9527C7.43656 15.8301 7.50555 15.6639 7.50581 15.4906Z" fill="#28A745"/>
<path d="M7.28732 17.4547H4.23332C4.14522 17.4513 4.05733 17.4657 3.97492 17.497C3.89251 17.5283 3.81727 17.576 3.75372 17.6371C3.69016 17.6982 3.63961 17.7715 3.60507 17.8527C3.57054 17.9338 3.55273 18.0211 3.55273 18.1092C3.55273 18.1974 3.57054 18.2847 3.60507 18.3658C3.63961 18.4469 3.69016 18.5202 3.75372 18.5813C3.81727 18.6425 3.89251 18.6901 3.97492 18.7214C4.05733 18.7528 4.14522 18.7672 4.23332 18.7637H7.28832C7.45748 18.7571 7.61751 18.6853 7.73485 18.5632C7.85219 18.4412 7.91773 18.2785 7.91773 18.1092C7.91773 17.9399 7.85219 17.7772 7.73485 17.6552C7.61751 17.5332 7.45748 17.4613 7.28832 17.4547H7.28732Z" fill="#28A745"/>
<path d="M7.50564 12.8727C7.50564 12.6989 7.43663 12.5323 7.31379 12.4095C7.19095 12.2867 7.02435 12.2177 6.85063 12.2177H1.17864C1.09053 12.2142 1.00264 12.2286 0.920229 12.2599C0.837817 12.2913 0.762581 12.3389 0.699029 12.4001C0.635477 12.4612 0.584918 12.5345 0.550383 12.6156C0.515848 12.6967 0.498047 12.784 0.498047 12.8722C0.498047 12.9603 0.515848 13.0476 0.550383 13.1287C0.584918 13.2098 0.635477 13.2832 0.699029 13.3443C0.762581 13.4054 0.837817 13.453 0.920229 13.4844C1.00264 13.5157 1.09053 13.5301 1.17864 13.5267H6.85163C7.02501 13.5264 7.1912 13.4574 7.31379 13.3348C7.43638 13.2122 7.50537 13.046 7.50564 12.8727Z" fill="#28A745"/>
<path d="M18.1963 14.1815V6.76355C16.7292 6.76355 15.295 7.1986 14.0751 8.0137C12.8552 8.8288 11.9044 9.98734 11.343 11.3428C10.7815 12.6983 10.6346 14.1898 10.9209 15.6287C11.2071 17.0677 11.9136 18.3894 12.951 19.4269C13.9884 20.4643 15.3102 21.1708 16.7491 21.457C18.1881 21.7432 19.6796 21.5963 21.0351 21.0349C22.3905 20.4734 23.5491 19.5226 24.3642 18.3028C25.1793 17.0829 25.6143 15.6487 25.6143 14.1815H18.1963Z" fill="#28A745"/>
<path d="M25.3789 7.49158L26.0789 6.79158C26.1423 6.73137 26.193 6.65908 26.2281 6.57896C26.2631 6.49884 26.2817 6.41251 26.2829 6.32507C26.284 6.23764 26.2676 6.15086 26.2347 6.06986C26.2017 5.98886 26.1529 5.91528 26.0911 5.85345C26.0292 5.79162 25.9556 5.74279 25.8746 5.70985C25.7936 5.67691 25.7069 5.66053 25.6194 5.66166C25.532 5.66279 25.4457 5.68141 25.3656 5.71644C25.2854 5.75146 25.2131 5.80218 25.1529 5.86559L24.4229 6.59558C23.0161 5.4367 21.3134 4.6941 19.5069 4.45158V3.27258H16.8889V4.45058C15.0825 4.6931 13.3797 5.4357 11.9729 6.59458L11.2429 5.86459C11.1827 5.80118 11.1104 5.75046 11.0303 5.71544C10.9502 5.68042 10.8639 5.66179 10.7764 5.66066C10.689 5.65953 10.6022 5.67592 10.5212 5.70885C10.4402 5.74179 10.3666 5.79062 10.3048 5.85245C10.243 5.91428 10.1941 5.98786 10.1612 6.06886C10.1283 6.14986 10.1119 6.23664 10.113 6.32407C10.1141 6.41151 10.1328 6.49784 10.1678 6.57796C10.2028 6.65808 10.2535 6.73037 10.3169 6.79058L11.0169 7.49059C9.7121 8.88925 8.84425 10.6386 8.52001 12.5238C8.19578 14.4089 8.42927 16.3477 9.19181 18.1019C9.95436 19.8562 11.2128 21.3495 12.8124 22.3983C14.412 23.4472 16.2831 24.006 18.1959 24.006C20.1088 24.006 21.9799 23.4472 23.5795 22.3983C25.1791 21.3495 26.4375 19.8562 27.2001 18.1019C27.9626 16.3477 28.1961 14.4089 27.8719 12.5238C27.5476 10.6386 26.6798 8.88925 25.3749 7.49059L25.3789 7.49158ZM18.1999 22.2546C16.6032 22.2546 15.0424 21.7811 13.7148 20.894C12.3872 20.007 11.3525 18.7461 10.7414 17.271C10.1304 15.7958 9.97056 14.1726 10.2821 12.6066C10.5936 11.0406 11.3624 9.60214 12.4915 8.47311C13.6205 7.34408 15.059 6.5752 16.625 6.2637C18.191 5.9522 19.8142 6.11208 21.2893 6.72311C22.7645 7.33413 24.0253 8.36887 24.9124 9.69646C25.7995 11.0241 26.2729 12.5849 26.2729 14.1816C26.2729 15.242 26.064 16.292 25.6581 17.2717C25.2522 18.2513 24.6573 19.1414 23.9073 19.8911C23.1574 20.6408 22.2671 21.2354 21.2873 21.6409C20.3074 22.0465 19.2573 22.255 18.1969 22.2546H18.1999Z" fill="#28A745"/>
</svg>
