<svg width="74" height="125" viewBox="0 0 74 125" fill="none" xmlns="http://www.w3.org/2000/svg">
<path d="M72.75 57.0171V57.018V64.1554C72.75 64.1555 72.75 64.1555 72.75 64.1556C72.7515 71.668 69.247 78.865 63.0081 84.3012C56.9361 89.5921 48.7059 92.8431 39.9149 93.4705V107.12H53.2596C58.7577 107.12 63.3008 110.788 63.3008 115.719V121.109C63.3008 121.865 62.9308 122.55 62.3441 123.028L61.8705 122.446L62.344 123.028C61.7615 123.502 60.9988 123.75 60.228 123.75H13.772C13.0012 123.75 12.2385 123.502 11.656 123.028C11.0691 122.55 10.6992 121.865 10.6992 121.109V115.435C10.6992 110.568 15.177 107.12 20.7404 107.12H33.7692V93.4684C15.6978 92.1241 1.25 79.6218 1.25 64.1593V57.0218C1.25 56.2316 1.63663 55.5138 2.25305 55.0119C2.86525 54.5134 3.6681 54.2519 4.48075 54.2519C5.29341 54.2519 6.09626 54.5134 6.70846 55.0119C7.32488 55.5138 7.71151 56.2316 7.71151 57.0218V64.1593C7.71151 77.2157 20.7032 88.0788 37 88.0788C53.2969 88.0788 66.2885 77.2194 66.2885 64.1593V57.0226V57.0218H67.0385L72.75 57.0171ZM72.75 57.0171C72.7495 56.6293 72.655 56.2506 72.4784 55.9044C72.3022 55.559 72.0499 55.2562 71.7448 55.0082C71.4399 54.7605 71.0858 54.5701 70.7056 54.4422L70.4664 55.153L72.75 57.0171ZM57.1552 115.719V118.467H16.8448V115.435C16.8448 114.554 17.2151 113.819 17.865 113.29C18.5257 112.752 19.5096 112.402 20.7404 112.402H53.2596C55.5905 112.402 57.1552 113.905 57.1552 115.719Z" fill="#28A745" stroke="#28A745" stroke-width="1.5"/>
<path d="M37.1547 1.25H37.1547C25.2184 1.25 15.25 9.27459 15.25 19.4322V64.5678C15.25 74.7215 25.2183 82.75 37.1547 82.75C49.0758 82.75 59.0696 74.7298 58.7421 64.5555V19.4448C58.8208 17.0581 58.3114 14.6872 57.2502 12.4739C56.1875 10.2576 54.5953 8.2486 52.5774 6.56044C50.5597 4.87248 48.1549 3.53726 45.5081 2.62753C42.8613 1.71776 40.0212 1.25016 37.1547 1.25ZM52.5763 64.564C52.5763 71.3965 45.7965 77.1872 37.1547 77.1872C28.4925 77.1872 21.4158 71.3837 21.4158 64.564V19.4322C21.4158 12.6162 28.4926 6.80904 37.1547 6.80904C45.7966 6.80904 52.5763 12.596 52.5763 19.4322V64.564Z" fill="#28A745" stroke="#28A745" stroke-width="1.5"/>
</svg>
