<svg width="120" height="120" viewBox="0 0 120 120" fill="none" xmlns="http://www.w3.org/2000/svg">
<path d="M60 0C48.1331 0 36.5328 3.51894 26.6658 10.1118C16.7989 16.7047 9.10851 26.0754 4.56725 37.039C0.0259969 48.0025 -1.1622 60.0665 1.15291 71.7054C3.46802 83.3443 9.18247 94.0352 17.5736 102.426C25.9648 110.818 36.6557 116.532 48.2946 118.847C59.9335 121.162 71.9974 119.974 82.961 115.433C93.9246 110.891 103.295 103.201 109.888 93.3342C116.481 83.4672 120 71.8669 120 60C120 44.087 113.679 28.8258 102.426 17.5736C91.1742 6.32141 75.913 0 60 0ZM60 112.5C49.6165 112.5 39.4662 109.421 30.8326 103.652C22.199 97.8834 15.4699 89.684 11.4963 80.0909C7.52275 70.4977 6.48307 59.9417 8.5088 49.7577C10.5345 39.5737 15.5347 30.2191 22.8769 22.8769C30.2192 15.5346 39.5738 10.5345 49.7578 8.50877C59.9418 6.48305 70.4978 7.52272 80.0909 11.4963C89.684 15.4699 97.8834 22.199 103.652 30.8326C109.421 39.4661 112.5 49.6165 112.5 60C112.5 73.9238 106.969 87.2774 97.1231 97.1231C87.2775 106.969 73.9239 112.5 60 112.5Z" fill="#28A745"/>
<path d="M76.2371 60.0001C76.2371 56.6906 75.2552 53.4555 73.4158 50.7043C71.5764 47.9531 68.9621 45.8094 65.9038 44.5447C62.8455 43.2799 59.4808 42.9509 56.2354 43.5993C52.9901 44.2477 50.01 45.8443 47.6725 48.1871C45.335 50.5299 43.745 53.5135 43.1039 56.7603C42.4628 60.0071 42.7994 63.3711 44.071 66.4265C45.3426 69.4819 47.4922 72.0914 50.2475 73.9247C53.0028 75.7579 56.2401 76.7325 59.5496 76.7251C63.9789 76.7152 68.2233 74.9487 71.3517 71.8132C74.4802 68.6778 76.2371 64.4294 76.2371 60.0001ZM59.5496 70.8751C57.4333 70.8823 55.3621 70.2632 53.5969 69.0957C51.8316 67.9283 50.4513 66.2646 49.6296 64.3143C48.8078 62.364 48.5815 60.2141 48.9791 58.1354C49.3767 56.0567 50.3804 54.1421 51.8638 52.6327C53.3472 51.1232 55.2441 50.0864 57.3155 49.6527C59.387 49.2191 61.5405 49.408 63.5048 50.1956C65.4691 50.9833 67.1565 52.3345 68.3545 54.0792C69.5525 55.8239 70.2075 57.884 70.2371 60.0001C70.2569 61.418 69.9954 62.8257 69.4677 64.1418C68.9399 65.4579 68.1565 66.6563 67.1625 67.6677C66.1686 68.679 64.984 69.4832 63.6773 70.0338C62.3705 70.5843 60.9676 70.8703 59.5496 70.8751Z" fill="#28A745"/>
<path d="M59.5498 20.3626H59.9998V14.4001H59.5498C47.6051 14.4063 36.1357 19.0799 27.5886 27.4239C19.0414 35.7678 14.0933 47.1215 13.7998 59.0626H19.7998C20.083 48.7064 24.3944 38.869 31.8175 31.6421C39.2405 24.4151 49.1897 20.3685 59.5498 20.3626Z" fill="#28A745"/>
<path d="M105.3 60H99.3375C99.3632 70.3292 95.371 80.2636 88.2049 87.7026C81.0387 95.1417 71.2605 99.5023 60.9375 99.8625V105.862C72.8489 105.492 84.1473 100.496 92.4364 91.9336C100.725 83.3715 105.353 71.9171 105.337 60H105.3Z" fill="#28A745"/>
<path d="M59.9998 33.75V27.9H59.5498C51.1811 27.9144 43.144 31.1738 37.1293 36.9927C31.1146 42.8115 27.591 50.7363 27.2998 59.1H33.2998C33.5712 52.3217 36.4561 45.9116 41.3498 41.2136C46.2436 36.5156 52.766 33.8946 59.5498 33.9L59.9998 33.75Z" fill="#28A745"/>
<path d="M60.9375 86.25V92.25C69.2448 91.883 77.0903 88.3251 82.8395 82.3173C88.5887 76.3096 91.7984 68.3154 91.8 60H85.8C85.8094 66.7281 83.235 73.2029 78.6084 78.0877C73.9818 82.9725 67.6562 85.8944 60.9375 86.25Z" fill="#28A745"/>
</svg>
