<svg width="31" height="22" viewBox="0 0 31 22" fill="none" xmlns="http://www.w3.org/2000/svg">
<path d="M27.3236 5.98316C27.3426 6.21433 27.3426 6.44639 27.3426 6.67845C27.3426 13.7426 21.2486 21.8823 10.1115 21.8823C6.81401 21.8899 3.58419 21.0568 0.810547 19.4832C1.296 19.5303 1.78417 19.5524 2.27255 19.5493C4.99837 19.5556 7.64712 18.7514 9.79155 17.2667C8.52773 17.2465 7.30261 16.8785 6.28733 16.2141C5.27206 15.5497 4.51732 14.6221 4.12855 13.5608C4.50698 13.6137 4.8894 13.6415 5.27255 13.6437C5.81042 13.6425 6.34597 13.5814 6.86655 13.462C5.49498 13.2172 4.26179 12.5609 3.37656 11.6046C2.49132 10.6483 2.00864 9.45111 2.01055 8.21639V8.15022C2.84958 8.56344 3.78738 8.79593 4.74755 8.82875C3.46203 8.07234 2.55218 6.91154 2.20372 5.58331C1.85527 4.25507 2.09449 2.85957 2.87255 1.68169C4.39387 3.33374 6.29173 4.68522 8.44307 5.64848C10.5944 6.61173 12.9512 7.16526 15.3606 7.27316C15.2634 6.8708 15.2131 6.46072 15.2106 6.04934C15.2117 4.97755 15.5777 3.93079 16.2612 3.04477C16.9447 2.15875 17.914 1.47433 19.0436 1.08025C20.1732 0.686174 21.411 0.600612 22.5963 0.83466C23.7817 1.06871 24.86 1.61157 25.6916 2.39286C27.0479 2.16255 28.3486 1.72606 29.5356 1.10287C29.0837 2.33765 28.1369 3.38457 26.8726 4.04728C28.0751 3.92658 29.2504 3.64792 30.3596 3.22051C29.5305 4.28554 28.5038 5.21953 27.3226 5.98316H27.3236Z" fill="white"/>
</svg>
