<svg width="18" height="23" viewBox="0 0 18 23" fill="none" xmlns="http://www.w3.org/2000/svg">
<path d="M12.8391 16.0302L13.9391 14.3445L15.9201 13.7056L16.1391 11.7369L17.6291 10.3484L16.9211 8.48476L17.6291 6.62112L16.1391 5.23262L15.9201 3.26393L13.9391 2.62505L12.8391 0.938407L10.7631 1.17598L9.00009 0.110229L7.23609 1.17503L5.16109 0.938407L4.0611 2.6241L2.08009 3.26298L1.86109 5.23168L0.371094 6.62018L1.07909 8.48381L0.371094 10.3474L1.86109 11.7359L2.08009 13.7046L4.0611 14.3435L5.16109 16.0292L7.23709 15.7916L9.00009 16.8564L10.7631 15.7916L12.8391 16.0302ZM2.9331 8.48381C2.9331 7.34808 3.28892 6.23786 3.95557 5.29354C4.62222 4.34921 5.56975 3.6132 6.67835 3.17858C7.78695 2.74395 9.00683 2.63023 10.1837 2.8518C11.3606 3.07337 12.4416 3.62028 13.2901 4.42336C14.1386 5.22644 14.7164 6.24963 14.9505 7.36353C15.1846 8.47744 15.0645 9.63204 14.6053 10.6813C14.1461 11.7306 13.3685 12.6274 12.3707 13.2584C11.373 13.8894 10.2 14.2262 9.00009 14.2262C7.39159 14.2244 5.84951 13.6188 4.71213 12.5423C3.57475 11.4658 2.93495 10.0062 2.9331 8.48381Z" fill="#28A745"/>
<path d="M8.99985 4.07324C8.07819 4.07324 7.17723 4.33192 6.41089 4.81657C5.64456 5.30122 5.04727 5.99006 4.69457 6.796C4.34186 7.60194 4.24958 8.48877 4.42939 9.34435C4.60919 10.1999 5.05302 10.9858 5.70473 11.6027C6.35644 12.2195 7.18678 12.6396 8.09073 12.8098C8.99468 12.98 9.93166 12.8926 10.7832 12.5588C11.6347 12.2249 12.3625 11.6596 12.8745 10.9343C13.3865 10.209 13.6599 9.35622 13.6599 8.48387C13.6585 7.31449 13.1671 6.19335 12.2935 5.36647C11.4199 4.53958 10.2354 4.07449 8.99985 4.07324Z" fill="#28A745"/>
<path d="M6.9053 17.1718L4.43629 17.4557L3.1363 15.452L2.6923 15.3091L0.779297 20.9691L4.2233 20.7902L6.9183 22.828L8.5043 18.1372L6.9053 17.1718Z" fill="#28A745"/>
<path d="M14.8689 15.45L13.5689 17.4537L11.0999 17.1697L9.50586 18.1323L11.0919 22.8231L13.7869 20.7853L17.2309 20.9642L15.3179 15.3042L14.8689 15.45Z" fill="#28A745"/>
</svg>
