<svg width="16" height="24" viewBox="0 0 16 24" fill="none" xmlns="http://www.w3.org/2000/svg">
<path d="M15.5678 12.3902C15.5678 12.1687 15.4798 11.9563 15.3232 11.7997C15.1666 11.6432 14.9542 11.5552 14.7328 11.5552C14.5113 11.5552 14.2989 11.6432 14.1423 11.7997C13.9857 11.9563 13.8978 12.1687 13.8978 12.3902C13.8978 13.165 13.7452 13.9322 13.4486 14.648C13.1521 15.3638 12.7176 16.0142 12.1697 16.5621C11.6218 17.11 10.9714 17.5446 10.2556 17.8411C9.53977 18.1376 8.77256 18.2902 7.99776 18.2902C7.22296 18.2902 6.45574 18.1376 5.73992 17.8411C5.0241 17.5446 4.3737 17.11 3.82583 16.5621C3.27796 16.0142 2.84337 15.3638 2.54687 14.648C2.25037 13.9322 2.09776 13.165 2.09776 12.3902C2.09776 12.1687 2.00978 11.9563 1.85319 11.7997C1.6966 11.6432 1.48421 11.5552 1.26276 11.5552C1.0413 11.5552 0.828919 11.6432 0.672326 11.7997C0.515733 11.9563 0.427758 12.1687 0.427758 12.3902C0.423051 14.2562 1.10792 16.0582 2.35084 17.4501C3.59375 18.8419 5.30708 19.7255 7.16176 19.9312V22.1572H4.13176C3.91031 22.1572 3.69791 22.2451 3.54132 22.4017C3.38473 22.5583 3.29676 22.7707 3.29676 22.9922C3.29676 23.2136 3.38473 23.426 3.54132 23.5826C3.69791 23.7392 3.91031 23.8272 4.13176 23.8272H11.8678C12.0892 23.8272 12.3016 23.7392 12.4582 23.5826C12.6148 23.426 12.7028 23.2136 12.7028 22.9922C12.7028 22.7707 12.6148 22.5583 12.4582 22.4017C12.3016 22.2451 12.0892 22.1572 11.8678 22.1572H8.83376V19.9312C10.6884 19.7255 12.4018 18.8419 13.6447 17.4501C14.8876 16.0582 15.5725 14.2562 15.5678 12.3902Z" fill="#28A745"/>
<path d="M7.99946 0.174072C6.76834 0.177244 5.58861 0.667983 4.71845 1.53889C3.84829 2.4098 3.35858 3.58995 3.35647 4.82107V12.3621C3.35463 12.9723 3.473 13.577 3.70484 14.1415C3.93667 14.706 4.27742 15.2193 4.70763 15.6521C5.13785 16.0849 5.6491 16.4288 6.21219 16.664C6.77529 16.8992 7.37921 17.0212 7.98946 17.0231C9.22192 17.0268 10.4054 16.5408 11.2795 15.6719C12.1536 14.803 12.6467 13.6225 12.6505 12.3901V4.82107C12.6483 3.58857 12.1575 2.40721 11.2856 1.53607C10.4137 0.664935 9.23196 0.17513 7.99946 0.174072V0.174072Z" fill="#28A745"/>
</svg>
