<svg width="28" height="23" viewBox="0 0 28 23" fill="none" xmlns="http://www.w3.org/2000/svg">
<path d="M15.1147 19.8892V18.1476H0.345705V19.8967C0.34489 20.6589 0.662613 21.3903 1.22953 21.9315C1.79645 22.4727 2.56653 22.7797 3.3717 22.7854H16.6037C16.4767 22.6766 16.3547 22.58 16.2387 22.4712C15.8812 22.1319 15.5979 21.7292 15.405 21.2862C15.2121 20.8431 15.1135 20.3684 15.1147 19.8892Z" fill="#28A745"/>
<path d="M10.803 9.33113L12.946 10.7234L15.097 9.33113C15.4072 9.1037 15.6619 8.81556 15.8436 8.48641C16.0253 8.15726 16.1298 7.79485 16.15 7.42396V4.5419L12.95 3.04266L9.75 4.53812V7.42396C9.76996 7.79489 9.87439 8.15736 10.0561 8.48654C10.2379 8.81572 10.4926 9.10383 10.803 9.33113ZM11.285 6.61092C11.3222 6.57501 11.3667 6.54648 11.4157 6.527C11.4647 6.50753 11.5173 6.4975 11.5705 6.4975C11.6237 6.4975 11.6763 6.50753 11.7253 6.527C11.7743 6.54648 11.8188 6.57501 11.856 6.61092L12.5 7.22614L14.049 5.76003C14.1248 5.68837 14.2277 5.64815 14.3349 5.64824C14.442 5.64833 14.5448 5.68871 14.6205 5.76051C14.6962 5.8323 14.7387 5.92962 14.7386 6.03106C14.7385 6.13251 14.6958 6.22976 14.62 6.30142L12.784 8.04012C12.7083 8.11232 12.6055 8.15316 12.498 8.1537C12.4447 8.15362 12.3919 8.14345 12.3428 8.12378C12.2937 8.10411 12.2492 8.07535 12.212 8.03918L11.283 7.15042C11.2454 7.11501 11.2156 7.07287 11.1954 7.02645C11.1752 6.98004 11.1649 6.93029 11.1652 6.88008C11.1654 6.82988 11.1763 6.78022 11.197 6.73402C11.2178 6.68781 11.248 6.64596 11.286 6.61092H11.285Z" fill="#28A745"/>
<path d="M24.9741 0.0736084H24.9611C24.3859 0.0802656 23.8364 0.299868 23.4302 0.685368C23.024 1.07087 22.7935 1.5916 22.7881 2.13601V5.64369H27.1151V2.12843C27.1175 1.58767 26.8936 1.06799 26.4925 0.682963C26.0913 0.297933 25.5454 0.0788562 24.9741 0.0736084V0.0736084Z" fill="#28A745"/>
<path d="M6.5456 0.0736371C6.01 0.070862 5.49509 0.269134 5.11365 0.625016C4.73221 0.980897 4.51536 1.46537 4.5106 1.97229L4.3916 17.383H15.5186C15.627 17.3879 15.7292 17.4323 15.8038 17.507C15.8783 17.5816 15.9195 17.6807 15.9186 17.7834V19.8893C15.9165 20.655 16.2352 21.3902 16.8048 21.9338C17.3745 22.4774 18.1487 22.7851 18.9576 22.7894H18.9676C19.7725 22.7836 20.542 22.4756 21.107 21.933C21.672 21.3904 21.9862 20.6577 21.9806 19.8959V2.13603C21.9881 1.74954 22.0765 1.3683 22.2406 1.01431C22.4047 0.660323 22.6412 0.340611 22.9366 0.0736371H6.5456ZM8.9456 4.29876C8.94292 4.22825 8.96153 4.15848 8.99925 4.09762C9.03698 4.03677 9.09226 3.98736 9.1586 3.95519L12.7756 2.27328C12.8304 2.24787 12.8906 2.23466 12.9516 2.23466C13.0126 2.23466 13.0728 2.24787 13.1276 2.27328L16.7506 3.95992C16.8171 3.99205 16.8725 4.04142 16.9104 4.10226C16.9483 4.16311 16.9671 4.2329 16.9646 4.30349V7.41933C16.9451 7.91579 16.8085 8.40182 16.5649 8.84187C16.3213 9.28191 15.9768 9.66481 15.5566 9.96255L13.1836 11.5025C13.1171 11.5456 13.0383 11.5687 12.9576 11.5687C12.8772 11.569 12.7987 11.5458 12.7326 11.5025L10.3526 9.96255C9.93258 9.66467 9.58819 9.28174 9.34458 8.84172C9.10098 8.40171 8.96432 7.91574 8.9446 7.41933L8.9456 4.29876ZM18.6956 15.6358H7.6156C7.50845 15.6358 7.4057 15.5955 7.32993 15.5238C7.25417 15.4521 7.2116 15.3548 7.2116 15.2534C7.2116 15.152 7.25417 15.0547 7.32993 14.983C7.4057 14.9113 7.50845 14.871 7.6156 14.871H18.6916C18.7988 14.871 18.9015 14.9113 18.9773 14.983C19.053 15.0547 19.0956 15.152 19.0956 15.2534C19.0956 15.3548 19.053 15.4521 18.9773 15.5238C18.9015 15.5955 18.7988 15.6358 18.6916 15.6358H18.6956ZM18.6956 13.615H7.6156C7.50845 13.615 7.4057 13.5748 7.32993 13.503C7.25417 13.4313 7.2116 13.3341 7.2116 13.2327C7.2116 13.1312 7.25417 13.034 7.32993 12.9623C7.4057 12.8906 7.50845 12.8503 7.6156 12.8503H18.6916C18.7988 12.8503 18.9015 12.8906 18.9773 12.9623C19.053 13.034 19.0956 13.1312 19.0956 13.2327C19.0956 13.3341 19.053 13.4313 18.9773 13.503C18.9015 13.5748 18.7988 13.615 18.6916 13.615H18.6956Z" fill="#28A745"/>
</svg>
