<svg width="24" height="23" viewBox="0 0 24 23" fill="none" xmlns="http://www.w3.org/2000/svg">
<path d="M7.32395 7.00557C7.23415 7.68394 7.23718 8.37044 7.33295 9.04808H14.045C13.1499 8.26458 12.0846 7.67579 10.9238 7.32297C9.76294 6.97014 8.53466 6.86182 7.32496 7.00557H7.32395Z" fill="#28A745"/>
<path d="M15.2645 10.3798H7.64551C7.89598 11.1285 8.263 11.8377 8.7345 12.4839H16.3525C16.1024 11.7352 15.7357 11.0261 15.2645 10.3798Z" fill="#28A745"/>
<path d="M8.36977 22.7893C10.1542 22.7872 11.8915 22.2464 13.3288 21.2455C14.7662 20.2446 15.8287 18.8358 16.3618 17.2239C16.1198 17.241 15.8754 17.2495 15.6288 17.2495C13.0366 17.2467 10.5515 16.2709 8.7186 14.5361C6.88569 12.8012 5.85468 10.4491 5.85177 7.99566C5.85177 7.76219 5.86077 7.53093 5.87877 7.30188C3.96748 7.86557 2.33291 9.0589 1.27149 10.6655C0.210083 12.272 -0.207878 14.1854 0.0934116 16.0586C0.394702 17.9319 1.39529 19.6409 2.91371 20.8757C4.43214 22.1105 6.36784 22.7894 8.36977 22.7893Z" fill="#28A745"/>
<path d="M16.6671 13.8157H9.95605C10.8512 14.5991 11.9165 15.1877 13.0773 15.5404C14.2382 15.893 15.4664 16.0012 16.6761 15.8572C16.7658 15.1792 16.7628 14.493 16.6671 13.8157Z" fill="#28A745"/>
<path d="M15.6287 0.0736084C13.8443 0.0756381 12.107 0.616442 10.6697 1.61736C9.23231 2.61828 8.16982 4.02712 7.63672 5.63896C7.87872 5.62192 8.12305 5.6134 8.36972 5.6134C10.9618 5.61616 13.447 6.592 15.2799 8.32683C17.1128 10.0617 18.1438 12.4138 18.1467 14.8672C18.1467 15.1007 18.1377 15.3319 18.1197 15.561C20.031 14.9973 21.6656 13.804 22.727 12.1974C23.7884 10.5909 24.2064 8.67747 23.9051 6.80424C23.6038 4.93102 22.6032 3.22202 21.0848 1.98719C19.5664 0.75235 17.6307 0.0734492 15.6287 0.0736084V0.0736084Z" fill="#28A745"/>
</svg>
