<svg width="391" height="291" viewBox="0 0 391 291" fill="none" xmlns="http://www.w3.org/2000/svg">
<path d="M178.845 69.1335H176.874V25.3441C176.874 18.6225 173.582 12.1761 167.722 7.42314C161.862 2.6702 153.914 1.06018e-05 145.627 0H31.2468C27.1434 -8.39902e-06 23.0802 0.655528 19.2892 1.92918C15.4981 3.20283 12.0535 5.06966 9.152 7.42307C6.25047 9.77649 3.94884 12.5704 2.37854 15.6453C0.808237 18.7202 9.06081e-06 22.0158 0 25.344V265.576C-3.236e-06 268.904 0.808211 272.2 2.3785 275.275C3.94879 278.35 6.25041 281.144 9.15193 283.497C12.0535 285.851 15.4981 287.717 19.2891 288.991C23.0801 290.265 27.1433 290.92 31.2467 290.92H145.627C153.914 290.92 161.862 288.25 167.722 283.497C173.582 278.744 176.874 272.298 176.874 265.576V100.304H178.845V69.1335Z" fill="#D1D1D1" fill-opacity="0.5"/>
<path d="M146.888 6.59366H131.958C132.644 7.95902 132.906 9.44039 132.721 10.9073C132.535 12.3741 131.908 13.7815 130.894 15.0054C129.88 16.2292 128.51 17.232 126.906 17.9255C125.301 18.6189 123.511 18.9816 121.693 18.9817H56.1662C54.3482 18.9816 52.5581 18.6189 50.9537 17.9255C49.3493 17.232 47.9797 16.2292 46.9656 15.0054C45.9516 13.7815 45.3241 12.3741 45.1386 10.9072C44.9531 9.44036 45.2152 7.95899 45.9018 6.59363H31.9568C25.768 6.59362 19.8328 8.58768 15.4567 12.1371C11.0805 15.6866 8.62208 20.5006 8.62207 25.5203V265.4C8.62207 267.885 9.22564 270.347 10.3983 272.643C11.571 274.939 13.2898 277.026 15.4566 278.783C17.6235 280.541 20.1958 281.935 23.0269 282.886C25.858 283.837 28.8924 284.327 31.9567 284.327H146.888C149.953 284.327 152.987 283.837 155.818 282.886C158.649 281.935 161.221 280.541 163.388 278.783C165.555 277.026 167.274 274.939 168.447 272.643C169.619 270.347 170.223 267.885 170.223 265.4V25.5203C170.223 23.0348 169.619 20.5737 168.447 18.2774C167.274 15.9811 165.555 13.8946 163.388 12.1371C161.221 10.3796 158.649 8.98551 155.818 8.03436C152.987 7.08321 149.952 6.59366 146.888 6.59366Z" fill="white"/>
<path d="M22.4928 119.382C22.3621 119.382 22.2368 119.34 22.1443 119.265C22.0519 119.19 22 119.088 22 118.982V104.991C22 104.885 22.0519 104.784 22.1443 104.709C22.2368 104.634 22.3621 104.592 22.4928 104.592C22.6235 104.592 22.7489 104.634 22.8413 104.709C22.9337 104.784 22.9857 104.885 22.9857 104.991V118.982C22.9857 119.088 22.9337 119.19 22.8413 119.265C22.7489 119.34 22.6235 119.382 22.4928 119.382Z" fill="#CCCCCC"/>
<path d="M25.943 121.581C25.8123 121.581 25.687 121.538 25.5945 121.463C25.5021 121.389 25.4502 121.287 25.4502 121.181V102.793C25.4502 102.687 25.5021 102.585 25.5945 102.51C25.687 102.435 25.8123 102.393 25.943 102.393C26.0737 102.393 26.1991 102.435 26.2915 102.51C26.3839 102.585 26.4359 102.687 26.4359 102.793V121.181C26.4359 121.287 26.3839 121.389 26.2915 121.463C26.1991 121.538 26.0737 121.581 25.943 121.581Z" fill="#CCCCCC"/>
<path d="M29.3922 122.98C29.2615 122.98 29.1362 122.937 29.0438 122.863C28.9513 122.788 28.8994 122.686 28.8994 122.58V101.394C28.8994 101.288 28.9513 101.186 29.0438 101.111C29.1362 101.036 29.2615 100.994 29.3922 100.994C29.523 100.994 29.6483 101.036 29.7407 101.111C29.8332 101.186 29.8851 101.288 29.8851 101.394V122.58C29.8851 122.686 29.8332 122.788 29.7407 122.863C29.6483 122.937 29.523 122.98 29.3922 122.98Z" fill="#CCCCCC"/>
<path d="M32.8424 126.577C32.7117 126.577 32.5864 126.535 32.4939 126.46C32.4015 126.385 32.3496 126.284 32.3496 126.178V97.7962C32.3496 97.6901 32.4015 97.5885 32.4939 97.5135C32.5864 97.4385 32.7117 97.3964 32.8424 97.3964C32.9732 97.3964 33.0985 97.4385 33.1909 97.5135C33.2834 97.5885 33.3353 97.6901 33.3353 97.7962V126.178C33.3353 126.284 33.2834 126.385 33.1909 126.46C33.0985 126.535 32.9732 126.577 32.8424 126.577Z" fill="#CCCCCC"/>
<path d="M36.2926 131.974C36.1619 131.974 36.0366 131.932 35.9441 131.857C35.8517 131.782 35.7998 131.68 35.7998 131.574V92.3997C35.7998 92.2937 35.8517 92.192 35.9441 92.1171C36.0366 92.0421 36.1619 92 36.2926 92C36.4233 92 36.5487 92.0421 36.6411 92.1171C36.7335 92.192 36.7855 92.2937 36.7855 92.3997V131.574C36.7855 131.68 36.7335 131.782 36.6411 131.857C36.5487 131.932 36.4233 131.974 36.2926 131.974Z" fill="#CCCCCC"/>
<path d="M39.7419 126.577C39.6112 126.577 39.4858 126.535 39.3934 126.46C39.3009 126.385 39.249 126.284 39.249 126.178V97.7962C39.249 97.6901 39.3009 97.5885 39.3934 97.5135C39.4858 97.4385 39.6112 97.3964 39.7419 97.3964C39.8726 97.3964 39.9979 97.4385 40.0903 97.5135C40.1828 97.5885 40.2347 97.6901 40.2347 97.7962V126.178C40.2347 126.284 40.1828 126.385 40.0903 126.46C39.9979 126.535 39.8726 126.577 39.7419 126.577Z" fill="#CCCCCC"/>
<path d="M43.1921 129.176C43.0613 129.176 42.936 129.133 42.8436 129.059C42.7511 128.984 42.6992 128.882 42.6992 128.776V95.1979C42.6992 95.0919 42.7511 94.9902 42.8436 94.9152C42.936 94.8403 43.0613 94.7982 43.1921 94.7982C43.3228 94.7982 43.4481 94.8403 43.5405 94.9152C43.633 94.9902 43.6849 95.0919 43.6849 95.1979V128.776C43.6849 128.882 43.633 128.984 43.5405 129.059C43.4481 129.133 43.3228 129.176 43.1921 129.176Z" fill="#CCCCCC"/>
<path d="M46.6413 122.38C46.5106 122.38 46.3852 122.338 46.2928 122.263C46.2004 122.188 46.1484 122.086 46.1484 121.98V101.993C46.1484 101.887 46.2004 101.786 46.2928 101.711C46.3852 101.636 46.5106 101.594 46.6413 101.594C46.772 101.594 46.8973 101.636 46.9898 101.711C47.0822 101.786 47.1341 101.887 47.1341 101.993V121.98C47.1341 122.086 47.0822 122.188 46.9898 122.263C46.8973 122.338 46.772 122.38 46.6413 122.38Z" fill="#CCCCCC"/>
<path d="M50.0915 123.979C49.9608 123.979 49.8354 123.937 49.743 123.862C49.6505 123.787 49.5986 123.685 49.5986 123.579V100.394C49.5986 100.288 49.6505 100.187 49.743 100.112C49.8354 100.037 49.9608 99.9948 50.0915 99.9948C50.2222 99.9948 50.3475 100.037 50.4399 100.112C50.5324 100.187 50.5843 100.288 50.5843 100.394V123.579C50.5843 123.685 50.5324 123.787 50.4399 123.862C50.3475 123.937 50.2222 123.979 50.0915 123.979Z" fill="#CCCCCC"/>
<path d="M53.5417 119.382C53.411 119.382 53.2856 119.34 53.1932 119.265C53.1007 119.19 53.0488 119.088 53.0488 118.982V104.991C53.0488 104.885 53.1007 104.784 53.1932 104.709C53.2856 104.634 53.411 104.592 53.5417 104.592C53.6724 104.592 53.7977 104.634 53.8901 104.709C53.9826 104.784 54.0345 104.885 54.0345 104.991V118.982C54.0345 119.088 53.9826 119.19 53.8901 119.265C53.7977 119.34 53.6724 119.382 53.5417 119.382Z" fill="#CCCCCC"/>
<path d="M56.4987 119.382C56.368 119.382 56.2426 119.34 56.1502 119.265C56.0578 119.19 56.0059 119.088 56.0059 118.982V104.991C56.0059 104.885 56.0578 104.784 56.1502 104.709C56.2426 104.634 56.368 104.592 56.4987 104.592C56.6294 104.592 56.7547 104.634 56.8472 104.709C56.9396 104.784 56.9915 104.885 56.9915 104.991V118.982C56.9915 119.088 56.9396 119.19 56.8472 119.265C56.7547 119.34 56.6294 119.382 56.4987 119.382Z" fill="#CCCCCC"/>
<path d="M59.9479 121.581C59.8172 121.581 59.6918 121.538 59.5994 121.463C59.507 121.389 59.4551 121.287 59.4551 121.181V102.793C59.4551 102.687 59.507 102.585 59.5994 102.51C59.6918 102.435 59.8172 102.393 59.9479 102.393C60.0786 102.393 60.204 102.435 60.2964 102.51C60.3888 102.585 60.4408 102.687 60.4408 102.793V121.181C60.4408 121.287 60.3888 121.389 60.2964 121.463C60.204 121.538 60.0786 121.581 59.9479 121.581Z" fill="#CCCCCC"/>
<path d="M63.7946 123.091C63.6639 123.091 63.5385 123.048 63.4461 122.973C63.3537 122.898 63.3018 122.797 63.3018 122.691V101.505C63.3018 101.399 63.3537 101.297 63.4461 101.222C63.5385 101.147 63.6639 101.105 63.7946 101.105C63.9253 101.105 64.0506 101.147 64.1431 101.222C64.2355 101.297 64.2874 101.399 64.2874 101.505V122.691C64.2874 122.797 64.2355 122.898 64.1431 122.973C64.0506 123.048 63.9253 123.091 63.7946 123.091Z" fill="#CCCCCC"/>
<path d="M67.2448 126.688C67.1141 126.688 66.9887 126.646 66.8963 126.571C66.8039 126.496 66.752 126.395 66.752 126.288V97.9071C66.752 97.801 66.8039 97.6994 66.8963 97.6244C66.9887 97.5494 67.1141 97.5073 67.2448 97.5073C67.3755 97.5073 67.5009 97.5494 67.5933 97.6244C67.6857 97.6994 67.7376 97.801 67.7376 97.9071V126.288C67.7376 126.395 67.6857 126.496 67.5933 126.571C67.5009 126.646 67.3755 126.688 67.2448 126.688Z" fill="#CCCCCC"/>
<path d="M70.695 138.48C70.5643 138.48 70.4389 138.438 70.3465 138.363C70.2541 138.288 70.2021 138.187 70.2021 138.081V86.1148C70.2021 86.0088 70.2541 85.9071 70.3465 85.8322C70.4389 85.7572 70.5643 85.7151 70.695 85.7151C70.8257 85.7151 70.951 85.7572 71.0435 85.8322C71.1359 85.9071 71.1878 86.0088 71.1878 86.1148V138.081C71.1878 138.187 71.1359 138.288 71.0435 138.363C70.951 138.438 70.8257 138.48 70.695 138.48Z" fill="#CCCCCC"/>
<path d="M74.1442 126.688C74.0135 126.688 73.8881 126.646 73.7957 126.571C73.7033 126.496 73.6514 126.395 73.6514 126.288V97.9071C73.6514 97.801 73.7033 97.6994 73.7957 97.6244C73.8881 97.5494 74.0135 97.5073 74.1442 97.5073C74.2749 97.5073 74.4003 97.5494 74.4927 97.6244C74.5851 97.6994 74.637 97.801 74.637 97.9071V126.288C74.637 126.395 74.5851 126.496 74.4927 126.571C74.4003 126.646 74.2749 126.688 74.1442 126.688Z" fill="#CCCCCC"/>
<path d="M77.5944 129.286C77.4637 129.286 77.3383 129.244 77.2459 129.169C77.1535 129.094 77.1016 128.993 77.1016 128.887V95.3088C77.1016 95.2028 77.1535 95.1011 77.2459 95.0261C77.3383 94.9512 77.4637 94.9091 77.5944 94.9091C77.7251 94.9091 77.8505 94.9512 77.9429 95.0261C78.0353 95.1011 78.0872 95.2028 78.0872 95.3088V128.887C78.0872 128.993 78.0353 129.094 77.9429 129.169C77.8505 129.244 77.7251 129.286 77.5944 129.286Z" fill="#CCCCCC"/>
<path d="M81.0436 122.491C80.9129 122.491 80.7875 122.449 80.6951 122.374C80.6027 122.299 80.5508 122.197 80.5508 122.091V102.104C80.5508 101.998 80.6027 101.897 80.6951 101.822C80.7875 101.747 80.9129 101.705 81.0436 101.705C81.1743 101.705 81.2997 101.747 81.3921 101.822C81.4845 101.897 81.5365 101.998 81.5365 102.104V122.091C81.5365 122.197 81.4845 122.299 81.3921 122.374C81.2997 122.449 81.1743 122.491 81.0436 122.491Z" fill="#CCCCCC"/>
<path d="M84.4938 124.09C84.3631 124.09 84.2377 124.048 84.1453 123.973C84.0529 123.898 84.001 123.796 84.001 123.69V100.505C84.001 100.399 84.0529 100.298 84.1453 100.223C84.2377 100.148 84.3631 100.106 84.4938 100.106C84.6245 100.106 84.7499 100.148 84.8423 100.223C84.9347 100.298 84.9866 100.399 84.9866 100.505V123.69C84.9866 123.796 84.9347 123.898 84.8423 123.973C84.7499 124.048 84.6245 124.09 84.4938 124.09Z" fill="#CCCCCC"/>
<path d="M87.944 119.493C87.8133 119.493 87.6879 119.451 87.5955 119.376C87.5031 119.301 87.4512 119.199 87.4512 119.093V105.102C87.4512 104.996 87.5031 104.895 87.5955 104.82C87.6879 104.745 87.8133 104.703 87.944 104.703C88.0747 104.703 88.2001 104.745 88.2925 104.82C88.3849 104.895 88.4368 104.996 88.4368 105.102V119.093C88.4368 119.199 88.3849 119.301 88.2925 119.376C88.2001 119.451 88.0747 119.493 87.944 119.493Z" fill="#CCCCCC"/>
<path d="M90.901 119.493C90.7703 119.493 90.645 119.451 90.5525 119.376C90.4601 119.301 90.4082 119.199 90.4082 119.093V105.102C90.4082 104.996 90.4601 104.895 90.5525 104.82C90.645 104.745 90.7703 104.703 90.901 104.703C91.0317 104.703 91.1571 104.745 91.2495 104.82C91.3419 104.895 91.3939 104.996 91.3939 105.102V119.093C91.3939 119.199 91.3419 119.301 91.2495 119.376C91.1571 119.451 91.0317 119.493 90.901 119.493Z" fill="#CCCCCC"/>
<path d="M94.3503 121.691C94.2196 121.691 94.0942 121.649 94.0018 121.574C93.9093 121.499 93.8574 121.398 93.8574 121.292V102.904C93.8574 102.798 93.9093 102.696 94.0018 102.621C94.0942 102.546 94.2196 102.504 94.3503 102.504C94.481 102.504 94.6063 102.546 94.6987 102.621C94.7912 102.696 94.8431 102.798 94.8431 102.904V121.292C94.8431 121.398 94.7912 121.499 94.6987 121.574C94.6063 121.649 94.481 121.691 94.3503 121.691Z" fill="#CCCCCC"/>
<path d="M97.8005 123.091C97.6697 123.091 97.5444 123.048 97.452 122.973C97.3595 122.898 97.3076 122.797 97.3076 122.691V101.505C97.3076 101.399 97.3595 101.297 97.452 101.222C97.5444 101.147 97.6697 101.105 97.8005 101.105C97.9312 101.105 98.0565 101.147 98.1489 101.222C98.2414 101.297 98.2933 101.399 98.2933 101.505V122.691C98.2933 122.797 98.2414 122.898 98.1489 122.973C98.0565 123.048 97.9312 123.091 97.8005 123.091Z" fill="#CCCCCC"/>
<path d="M101.251 126.688C101.12 126.688 100.995 126.646 100.902 126.571C100.81 126.496 100.758 126.395 100.758 126.288V97.9071C100.758 97.801 100.81 97.6994 100.902 97.6244C100.995 97.5494 101.12 97.5073 101.251 97.5073C101.381 97.5073 101.507 97.5494 101.599 97.6244C101.692 97.6994 101.743 97.801 101.743 97.9071V126.288C101.743 126.395 101.692 126.496 101.599 126.571C101.507 126.646 101.381 126.688 101.251 126.688Z" fill="#CCCCCC"/>
<path d="M104.7 132.085C104.569 132.085 104.444 132.042 104.351 131.968C104.259 131.893 104.207 131.791 104.207 131.685V92.5106C104.207 92.4046 104.259 92.3029 104.351 92.228C104.444 92.153 104.569 92.1109 104.7 92.1109C104.831 92.1109 104.956 92.153 105.048 92.228C105.141 92.3029 105.193 92.4046 105.193 92.5106V131.685C105.193 131.791 105.141 131.893 105.048 131.968C104.956 132.042 104.831 132.085 104.7 132.085Z" fill="#CCCCCC"/>
<path d="M107.165 149.773C107.034 149.773 106.909 149.731 106.816 149.656C106.724 149.581 106.672 149.479 106.672 149.373V74.8222C106.672 74.7162 106.724 74.6145 106.816 74.5396C106.909 74.4646 107.034 74.4225 107.165 74.4225C107.295 74.4225 107.421 74.4646 107.513 74.5396C107.606 74.6145 107.658 74.7162 107.658 74.8222V149.373C107.658 149.479 107.606 149.581 107.513 149.656C107.421 149.731 107.295 149.773 107.165 149.773Z" fill="#28A745"/>
<path d="M108.15 126.688C108.019 126.688 107.894 126.646 107.802 126.571C107.709 126.496 107.657 126.395 107.657 126.288V97.9071C107.657 97.801 107.709 97.6994 107.802 97.6244C107.894 97.5494 108.019 97.5073 108.15 97.5073C108.281 97.5073 108.406 97.5494 108.499 97.6244C108.591 97.6994 108.643 97.801 108.643 97.9071V126.288C108.643 126.395 108.591 126.496 108.499 126.571C108.406 126.646 108.281 126.688 108.15 126.688Z" fill="#CCCCCC"/>
<path d="M111.6 129.286C111.47 129.286 111.344 129.244 111.252 129.169C111.159 129.094 111.107 128.993 111.107 128.887V95.3088C111.107 95.2028 111.159 95.1011 111.252 95.0261C111.344 94.9512 111.47 94.9091 111.6 94.9091C111.731 94.9091 111.856 94.9512 111.949 95.0261C112.041 95.1011 112.093 95.2028 112.093 95.3088V128.887C112.093 128.993 112.041 129.094 111.949 129.169C111.856 129.244 111.731 129.286 111.6 129.286Z" fill="#CCCCCC"/>
<path d="M115.049 122.491C114.919 122.491 114.793 122.449 114.701 122.374C114.609 122.299 114.557 122.197 114.557 122.091V102.104C114.557 101.998 114.609 101.897 114.701 101.822C114.793 101.747 114.919 101.705 115.049 101.705C115.18 101.705 115.306 101.747 115.398 101.822C115.49 101.897 115.542 101.998 115.542 102.104V122.091C115.542 122.197 115.49 122.299 115.398 122.374C115.306 122.449 115.18 122.491 115.049 122.491Z" fill="#CCCCCC"/>
<path d="M118.5 124.09C118.369 124.09 118.244 124.048 118.151 123.973C118.059 123.898 118.007 123.796 118.007 123.69V100.505C118.007 100.399 118.059 100.298 118.151 100.223C118.244 100.148 118.369 100.106 118.5 100.106C118.63 100.106 118.756 100.148 118.848 100.223C118.941 100.298 118.993 100.399 118.993 100.505V123.69C118.993 123.796 118.941 123.898 118.848 123.973C118.756 124.048 118.63 124.09 118.5 124.09Z" fill="#CCCCCC"/>
<path d="M121.95 119.493C121.819 119.493 121.694 119.451 121.601 119.376C121.509 119.301 121.457 119.199 121.457 119.093V105.102C121.457 104.996 121.509 104.895 121.601 104.82C121.694 104.745 121.819 104.703 121.95 104.703C122.081 104.703 122.206 104.745 122.298 104.82C122.391 104.895 122.443 104.996 122.443 105.102V119.093C122.443 119.199 122.391 119.301 122.298 119.376C122.206 119.451 122.081 119.493 121.95 119.493Z" fill="#CCCCCC"/>
<path d="M124.907 119.493C124.776 119.493 124.651 119.451 124.558 119.376C124.466 119.301 124.414 119.199 124.414 119.093V105.102C124.414 104.996 124.466 104.895 124.558 104.82C124.651 104.745 124.776 104.703 124.907 104.703C125.038 104.703 125.163 104.745 125.255 104.82C125.348 104.895 125.4 104.996 125.4 105.102V119.093C125.4 119.199 125.348 119.301 125.255 119.376C125.163 119.451 125.038 119.493 124.907 119.493Z" fill="#CCCCCC"/>
<path d="M128.356 121.691C128.225 121.691 128.1 121.649 128.008 121.574C127.915 121.499 127.863 121.398 127.863 121.292V102.904C127.863 102.798 127.915 102.696 128.008 102.621C128.1 102.546 128.225 102.504 128.356 102.504C128.487 102.504 128.612 102.546 128.705 102.621C128.797 102.696 128.849 102.798 128.849 102.904V121.292C128.849 121.398 128.797 121.499 128.705 121.574C128.612 121.649 128.487 121.691 128.356 121.691Z" fill="#CCCCCC"/>
<path d="M131.806 123.091C131.676 123.091 131.55 123.048 131.458 122.973C131.365 122.898 131.313 122.797 131.313 122.691V101.505C131.313 101.399 131.365 101.297 131.458 101.222C131.55 101.147 131.676 101.105 131.806 101.105C131.937 101.105 132.062 101.147 132.155 101.222C132.247 101.297 132.299 101.399 132.299 101.505V122.691C132.299 122.797 132.247 122.898 132.155 122.973C132.062 123.048 131.937 123.091 131.806 123.091Z" fill="#CCCCCC"/>
<path d="M135.257 126.688C135.126 126.688 135 126.646 134.908 126.571C134.816 126.496 134.764 126.395 134.764 126.288V97.9071C134.764 97.801 134.816 97.6994 134.908 97.6244C135 97.5494 135.126 97.5073 135.257 97.5073C135.387 97.5073 135.513 97.5494 135.605 97.6244C135.697 97.6994 135.749 97.801 135.749 97.9071V126.288C135.749 126.395 135.697 126.496 135.605 126.571C135.513 126.646 135.387 126.688 135.257 126.688Z" fill="#CCCCCC"/>
<path d="M138.706 138.48C138.575 138.48 138.45 138.438 138.357 138.363C138.265 138.288 138.213 138.187 138.213 138.081V86.1148C138.213 86.0088 138.265 85.9071 138.357 85.8322C138.45 85.7572 138.575 85.7151 138.706 85.7151C138.836 85.7151 138.962 85.7572 139.054 85.8322C139.147 85.9071 139.199 86.0088 139.199 86.1148V138.081C139.199 138.187 139.147 138.288 139.054 138.363C138.962 138.438 138.836 138.48 138.706 138.48Z" fill="#CCCCCC"/>
<path d="M142.156 126.688C142.025 126.688 141.9 126.646 141.807 126.571C141.715 126.496 141.663 126.395 141.663 126.288V97.9071C141.663 97.801 141.715 97.6994 141.807 97.6244C141.9 97.5494 142.025 97.5073 142.156 97.5073C142.287 97.5073 142.412 97.5494 142.504 97.6244C142.597 97.6994 142.649 97.801 142.649 97.9071V126.288C142.649 126.395 142.597 126.496 142.504 126.571C142.412 126.646 142.287 126.688 142.156 126.688Z" fill="#CCCCCC"/>
<path d="M145.605 129.286C145.474 129.286 145.349 129.244 145.257 129.169C145.164 129.094 145.112 128.993 145.112 128.887V95.3088C145.112 95.2028 145.164 95.1011 145.257 95.0261C145.349 94.9512 145.474 94.9091 145.605 94.9091C145.736 94.9091 145.861 94.9512 145.954 95.0261C146.046 95.1011 146.098 95.2028 146.098 95.3088V128.887C146.098 128.993 146.046 129.094 145.954 129.169C145.861 129.244 145.736 129.286 145.605 129.286Z" fill="#CCCCCC"/>
<path d="M149.055 122.491C148.925 122.491 148.799 122.449 148.707 122.374C148.614 122.299 148.562 122.197 148.562 122.091V102.104C148.562 101.998 148.614 101.897 148.707 101.822C148.799 101.747 148.925 101.705 149.055 101.705C149.186 101.705 149.311 101.747 149.404 101.822C149.496 101.897 149.548 101.998 149.548 102.104V122.091C149.548 122.197 149.496 122.299 149.404 122.374C149.311 122.449 149.186 122.491 149.055 122.491Z" fill="#CCCCCC"/>
<path d="M152.506 124.09C152.375 124.09 152.249 124.048 152.157 123.973C152.065 123.898 152.013 123.796 152.013 123.69V100.505C152.013 100.399 152.065 100.298 152.157 100.223C152.249 100.148 152.375 100.106 152.506 100.106C152.636 100.106 152.762 100.148 152.854 100.223C152.946 100.298 152.998 100.399 152.998 100.505V123.69C152.998 123.796 152.946 123.898 152.854 123.973C152.762 124.048 152.636 124.09 152.506 124.09Z" fill="#CCCCCC"/>
<path d="M155.955 119.493C155.824 119.493 155.699 119.451 155.606 119.376C155.514 119.301 155.462 119.199 155.462 119.093V105.102C155.462 104.996 155.514 104.895 155.606 104.82C155.699 104.745 155.824 104.703 155.955 104.703C156.085 104.703 156.211 104.745 156.303 104.82C156.396 104.895 156.448 104.996 156.448 105.102V119.093C156.448 119.199 156.396 119.301 156.303 119.376C156.211 119.451 156.085 119.493 155.955 119.493Z" fill="#CCCCCC"/>
<path d="M23 153V167.271L36.7994 160.135L23 153Z" fill="#3F3D56"/>
<path d="M95.4142 228.834C99.2576 225.72 99.2494 220.659 95.3958 217.53C91.5423 214.402 85.3026 214.391 81.4592 217.505C77.6157 220.62 77.6239 225.681 81.4775 228.809C85.3311 231.938 91.5707 231.949 95.4142 228.834Z" fill="#28A745"/>
<path d="M131.456 229.566H128.08C127.633 229.566 127.203 229.422 126.886 229.165C126.57 228.909 126.391 228.561 126.39 228.198V218.149C126.391 217.786 126.569 217.438 126.886 217.181C127.203 216.924 127.632 216.779 128.08 216.778H131.456C131.904 216.778 132.334 216.922 132.651 217.18C132.968 217.437 133.146 217.785 133.146 218.149V228.202C133.146 228.382 133.102 228.56 133.016 228.725C132.931 228.891 132.806 229.041 132.649 229.168C132.492 229.295 132.306 229.395 132.101 229.463C131.897 229.531 131.677 229.566 131.456 229.566ZM142.155 228.202V218.149C142.155 217.786 141.978 217.438 141.662 217.181C141.346 216.924 140.917 216.779 140.47 216.778H137.089C136.641 216.779 136.212 216.924 135.895 217.181C135.578 217.438 135.4 217.786 135.399 218.149V228.202C135.4 228.565 135.579 228.913 135.896 229.169C136.212 229.426 136.642 229.57 137.089 229.57H140.47C140.691 229.57 140.91 229.534 141.115 229.466C141.319 229.397 141.505 229.296 141.662 229.169C141.818 229.042 141.942 228.892 142.027 228.726C142.112 228.56 142.155 228.382 142.155 228.202H142.155Z" fill="#3F3D56"/>
<path d="M125.976 160.952H39.5851C39.4298 160.952 39.2809 160.901 39.1713 160.812C39.0616 160.723 39 160.602 39 160.476C39 160.35 39.0616 160.229 39.1713 160.14C39.2809 160.051 39.4298 160 39.5851 160H125.976C126.132 160 126.281 160.05 126.391 160.139C126.501 160.229 126.563 160.35 126.563 160.476C126.563 160.602 126.501 160.723 126.391 160.812C126.281 160.902 126.132 160.952 125.976 160.952Z" fill="#CCCCCC"/>
<path d="M154.976 160.952H68.5851C68.4298 160.951 68.2809 160.901 68.1713 160.812C68.0616 160.723 68 160.602 68 160.476C68 160.35 68.0616 160.229 68.1713 160.14C68.2809 160.051 68.4298 160 68.5851 160H154.976C155.132 160 155.28 160.051 155.39 160.14C155.5 160.229 155.561 160.35 155.561 160.476C155.561 160.602 155.5 160.723 155.39 160.812C155.28 160.901 155.132 160.951 154.976 160.952Z" fill="#CCCCCC"/>
<path d="M272.356 126.905C272.295 126.905 272.235 126.902 272.175 126.896L255.324 125.101C255.077 125.075 254.843 124.995 254.647 124.87C254.451 124.745 254.3 124.58 254.209 124.391C254.119 124.203 254.092 123.998 254.133 123.799C254.173 123.599 254.278 123.412 254.438 123.257L266.185 111.903C266.344 111.747 266.553 111.628 266.789 111.56C267.025 111.491 267.279 111.476 267.524 111.515C267.77 111.554 267.998 111.647 268.185 111.782C268.371 111.918 268.509 112.092 268.583 112.286L273.683 125.435C273.749 125.604 273.765 125.783 273.73 125.959C273.694 126.134 273.608 126.3 273.479 126.443C273.35 126.586 273.181 126.703 272.986 126.783C272.79 126.863 272.575 126.905 272.356 126.905L272.356 126.905Z" fill="#F2F2F2"/>
<path d="M240.793 188.443C240.428 188.443 240.076 188.326 239.816 188.118C239.555 187.909 239.406 187.626 239.401 187.329L239.184 172.509C239.179 172.306 239.242 172.105 239.366 171.929C239.49 171.753 239.67 171.607 239.888 171.506C240.106 171.406 240.353 171.355 240.603 171.36C240.853 171.364 241.098 171.423 241.31 171.53L255.746 178.805C255.945 178.905 256.109 179.044 256.225 179.21C256.34 179.375 256.402 179.561 256.405 179.751C256.408 179.941 256.352 180.129 256.242 180.296C256.133 180.464 255.972 180.607 255.777 180.711L241.555 188.26C241.334 188.377 241.077 188.44 240.814 188.443H240.793Z" fill="#F2F2F2"/>
<path d="M374.845 211.228C374.479 211.228 374.128 211.111 373.868 210.903C373.607 210.694 373.458 210.411 373.453 210.114L373.236 195.294C373.231 195.091 373.294 194.89 373.418 194.714C373.542 194.538 373.722 194.392 373.94 194.291C374.158 194.191 374.405 194.14 374.655 194.145C374.905 194.149 375.149 194.208 375.362 194.315L389.797 201.59C389.996 201.69 390.161 201.829 390.276 201.995C390.392 202.16 390.454 202.346 390.457 202.536C390.46 202.726 390.404 202.914 390.294 203.081C390.184 203.249 390.024 203.392 389.828 203.496L375.607 211.045C375.386 211.162 375.129 211.225 374.865 211.228H374.845Z" fill="#F2F2F2"/>
<path d="M304.666 161.354C300.669 159.865 298.042 155.607 298.192 151.408C298.341 147.209 301.066 143.282 304.823 141.279C306.655 140.327 308.75 139.759 310.919 139.626C313.089 139.493 315.265 139.799 317.252 140.517C321.285 141.91 326.699 142.289 329.123 145.75C330.986 148.409 330.315 154.342 328.996 157.299C327.856 159.855 325.069 161.295 322.351 162.101C319.342 162.985 316.135 163.334 312.946 163.126C309.756 162.918 306.659 162.156 303.864 160.893" fill="#2F2E41"/>
<path d="M348.875 278.779L343.212 280.488L332.389 263.586L340.746 261.063L348.875 278.779Z" fill="#FFB8B8"/>
<path d="M338.565 280.397L349.486 277.1L352.045 282.677L334.249 288.05C333.913 287.317 333.758 286.538 333.793 285.757C333.828 284.976 334.052 284.209 334.453 283.498C334.854 282.787 335.423 282.148 336.129 281.616C336.835 281.083 337.662 280.669 338.565 280.397Z" fill="#2F2E41"/>
<path d="M294.556 283.499H288.514L285.64 264.596H294.557L294.556 283.499Z" fill="#FFB8B8"/>
<path d="M284.198 282.098H295.851V288.049H276.861C276.861 287.268 277.051 286.494 277.42 285.772C277.789 285.05 278.329 284.394 279.01 283.841C279.691 283.289 280.5 282.85 281.39 282.551C282.281 282.252 283.235 282.098 284.198 282.098Z" fill="#2F2E41"/>
<path d="M276.185 215.362C276.954 215.295 277.696 215.092 278.359 214.767C279.021 214.442 279.588 214.003 280.018 213.482C280.449 212.96 280.733 212.368 280.852 211.748C280.97 211.127 280.919 210.493 280.702 209.891L300.577 182.08L293.626 179.825L273.758 207.016C272.534 207.378 271.516 208.092 270.897 209.022C270.278 209.953 270.102 211.035 270.401 212.063C270.7 213.092 271.454 213.996 272.52 214.604C273.586 215.212 274.89 215.482 276.185 215.362V215.362Z" fill="#FFB8B8"/>
<path d="M296.113 191.966L285.55 186.643L295.51 171.921C295.949 171.273 296.543 170.703 297.257 170.245C297.972 169.787 298.793 169.45 299.671 169.253C300.549 169.057 301.467 169.005 302.37 169.101C303.273 169.197 304.144 169.439 304.929 169.813C305.715 170.187 306.401 170.685 306.945 171.277C307.49 171.87 307.882 172.545 308.099 173.262C308.317 173.98 308.354 174.725 308.21 175.455C308.066 176.185 307.742 176.883 307.259 177.51L296.113 191.966Z" fill="#2F2E41"/>
<path d="M336.445 270.672C336.035 270.672 335.633 270.58 335.285 270.405C334.936 270.23 334.654 269.98 334.471 269.682L308.192 225.809C308.031 225.551 307.774 225.339 307.458 225.204C307.142 225.069 306.782 225.017 306.427 225.055C306.073 225.093 305.742 225.219 305.48 225.417C305.218 225.614 305.038 225.872 304.965 226.156L295.603 267.971C295.498 268.376 295.226 268.74 294.83 269.001C294.435 269.262 293.941 269.406 293.431 269.407H287.467C286.913 269.41 286.378 269.243 285.969 268.94C285.56 268.637 285.306 268.22 285.258 267.773C281.594 235.16 283.576 211.428 291.151 197.235C291.366 196.841 291.746 196.522 292.225 196.335C292.704 196.148 293.249 196.106 293.763 196.216L324.042 202.814C324.424 202.897 324.77 203.062 325.047 203.29C325.324 203.518 325.521 203.802 325.618 204.113L344.596 266.9C344.733 267.344 344.656 267.814 344.38 268.214C344.105 268.614 343.651 268.914 343.113 269.052L337.119 270.588C336.901 270.644 336.674 270.672 336.445 270.672Z" fill="#2F2E41"/>
<path d="M312.925 165.335C319.61 165.335 325.029 160.939 325.029 155.517C325.029 150.095 319.61 145.699 312.925 145.699C306.24 145.699 300.82 150.095 300.82 155.517C300.82 160.939 306.24 165.335 312.925 165.335Z" fill="#FFB8B8"/>
<path d="M324.357 169.873C324.357 169.873 313.514 165.076 305.136 170.273C305.136 170.273 294.54 178.867 297.99 187.261L289.365 207.048C296.19 217.544 316.168 215.845 325.835 207.048L325.096 188.061L324.357 169.873Z" fill="#28A745"/>
<path d="M331.22 222.728C329.335 222.77 327.465 222.433 325.779 221.747C323.117 220.589 321.479 218.41 320.91 215.272C319.96 210.031 320.742 202.826 321.571 195.198C322.649 185.277 323.764 175.019 320.779 169.373C320.624 169.076 320.57 168.75 320.623 168.43C320.677 168.11 320.835 167.808 321.083 167.555C321.33 167.302 321.657 167.108 322.029 166.993C322.402 166.878 322.805 166.847 323.197 166.903L331.686 168.09C332.128 168.153 332.536 168.323 332.857 168.577C333.178 168.831 333.397 169.158 333.485 169.515L345.254 218.006C345.35 218.398 345.282 218.806 345.06 219.164C344.837 219.522 344.474 219.809 344.027 219.979C341.464 220.958 336.143 222.728 331.22 222.728Z" fill="#2F2E41"/>
<path d="M286.767 222.084C286.463 222.084 286.162 222.033 285.882 221.935C284.486 221.445 282.555 220.734 280.144 219.821C273.484 217.3 291.048 182.475 294.637 175.519C294.761 175.277 294.95 175.06 295.189 174.884L304.804 167.786C305.174 167.552 305.627 167.419 306.097 167.407C306.567 167.395 307.029 167.505 307.417 167.72C307.805 167.935 308.099 168.244 308.256 168.603C308.413 168.962 308.425 169.353 308.291 169.718C306.604 174.304 303.616 181.993 300.452 190.132C295.458 202.978 290.295 216.261 288.915 220.725C288.795 221.113 288.518 221.458 288.129 221.704C287.74 221.95 287.261 222.084 286.767 222.084L286.767 222.084Z" fill="#2F2E41"/>
<path d="M354.345 213.66C354.743 213.122 354.99 212.519 355.069 211.895C355.149 211.27 355.058 210.639 354.805 210.046C354.551 209.453 354.14 208.912 353.6 208.462C353.061 208.012 352.407 207.663 351.683 207.44L336.292 177.818L329.885 180.959L344.671 210.203C344.289 211.214 344.379 212.303 344.921 213.264C345.464 214.225 346.422 214.991 347.615 215.417C348.807 215.843 350.151 215.9 351.392 215.576C352.632 215.252 353.683 214.571 354.345 213.66Z" fill="#FFB8B8"/>
<path d="M331.728 190.295L323.243 174.977C322.87 174.303 322.667 173.575 322.646 172.837C322.626 172.098 322.788 171.363 323.124 170.676C323.46 169.989 323.962 169.364 324.601 168.837C325.24 168.31 326.002 167.893 326.844 167.609C327.685 167.326 328.588 167.182 329.499 167.187C330.41 167.191 331.31 167.344 332.147 167.635C332.984 167.927 333.741 168.352 334.372 168.885C335.003 169.418 335.496 170.048 335.821 170.738L343.33 186.664L331.728 190.295Z" fill="#2F2E41"/>
<path d="M321.53 143.297C321.966 143.348 322.411 143.282 322.795 143.108C323.18 142.933 323.483 142.661 323.658 142.333C323.819 142.001 323.885 141.643 323.849 141.287C323.814 140.931 323.678 140.587 323.453 140.28C322.995 139.668 322.355 139.159 321.592 138.799C320.714 138.323 319.698 138.04 318.644 137.977C318.118 137.949 317.591 138.013 317.099 138.164C316.606 138.316 316.159 138.552 315.789 138.856C315.427 139.167 315.189 139.559 315.103 139.981C315.018 140.403 315.09 140.837 315.31 141.225C315.752 141.918 316.681 142.306 317.586 142.569C319.381 143.091 321.293 143.295 323.193 143.167" fill="#2F2E41"/>
<path d="M325.835 153.883C323.949 154.329 324.052 153.504 323.017 152.15C321.983 150.795 320.639 149.201 318.677 149.286C317.07 149.355 315.95 150.54 314.804 151.457C312.762 153.092 309.797 154.127 306.994 153.628C304.192 153.129 301.881 150.783 302.497 148.51C302.702 147.878 303.065 147.287 303.564 146.774C304.062 146.261 304.685 145.836 305.395 145.526C306.819 144.912 308.383 144.542 309.99 144.436C313.547 144.104 317.151 144.41 320.547 145.331C322.891 145.969 325.247 147.001 326.413 148.769C327.58 150.537 328.601 153.095 326.328 153.883L325.835 153.883Z" fill="#2F2E41"/>
<path d="M319.866 138.232C318.267 136.589 318.869 134 320.732 132.552C322.595 131.103 325.364 130.652 327.935 130.836C330.482 131.044 332.916 131.791 334.994 133.003C337.072 134.215 338.721 135.849 339.775 137.741C341.399 140.755 341.386 144.202 342.855 147.268C343.638 148.902 344.825 150.389 346.343 151.637C347.862 152.885 349.679 153.868 351.683 154.525C353.687 155.182 355.836 155.499 357.997 155.457C360.158 155.415 362.286 155.015 364.249 154.28C366.806 153.324 369.24 151.452 369.095 149.171C370.711 154.226 367.8 160.009 362.282 162.701C359.051 164.278 355.223 164.813 351.479 165.182C349.039 165.422 346.532 165.6 344.151 165.106C340.82 164.414 338.031 162.42 336.342 159.99C334.653 157.561 333.989 154.729 333.963 151.94C333.943 149.768 334.294 147.594 334.108 145.426C333.923 143.259 333.12 141.017 331.182 139.516C329.245 138.015 325.976 137.521 323.85 138.843C322.996 139.374 322.37 140.15 321.408 140.542C320.446 140.934 318.926 140.629 318.861 139.758L319.866 138.232Z" fill="#2F2E41"/>
<path d="M384.558 219.624H233.112C232.957 219.623 232.808 219.573 232.699 219.484C232.589 219.394 232.527 219.274 232.527 219.148C232.527 219.022 232.589 218.901 232.699 218.812C232.808 218.722 232.957 218.672 233.112 218.672H384.558C384.713 218.672 384.862 218.722 384.972 218.812C385.081 218.901 385.143 219.022 385.143 219.148C385.143 219.274 385.081 219.394 384.972 219.484C384.862 219.573 384.713 219.623 384.558 219.624Z" fill="#3F3D56"/>
</svg>
