<svg width="323" height="218" viewBox="0 0 323 218" fill="none" xmlns="http://www.w3.org/2000/svg">
<path d="M188.36 216.864C188.314 216.792 187.204 215.067 186.82 211.484C186.467 208.197 186.694 202.657 189.778 194.928C195.619 180.287 188.431 168.474 188.358 168.356L188.713 168.165C190.096 170.633 191.096 173.272 191.682 176.002C193.129 182.361 192.602 188.972 190.162 195.061C184.33 209.678 188.666 216.597 188.71 216.665L188.36 216.864Z" fill="#28A745"/>
<path d="M186.075 167.497C187.547 167.497 188.739 166.385 188.739 165.014C188.739 163.643 187.547 162.532 186.075 162.532C184.604 162.532 183.411 163.643 183.411 165.014C183.411 166.385 184.604 167.497 186.075 167.497Z" fill="#28A745"/>
<path d="M194.478 176.663C195.949 176.663 197.142 175.551 197.142 174.18C197.142 172.809 195.949 171.698 194.478 171.698C193.006 171.698 191.813 172.809 191.813 174.18C191.813 175.551 193.006 176.663 194.478 176.663Z" fill="#28A745"/>
<path d="M188.739 182.774C190.211 182.774 191.404 181.662 191.404 180.291C191.404 178.92 190.211 177.809 188.739 177.809C187.268 177.809 186.075 178.92 186.075 180.291C186.075 181.662 187.268 182.774 188.739 182.774Z" fill="#28A745"/>
<path d="M195.707 187.93C197.178 187.93 198.371 186.818 198.371 185.447C198.371 184.076 197.178 182.965 195.707 182.965C194.236 182.965 193.043 184.076 193.043 185.447C193.043 186.818 194.236 187.93 195.707 187.93Z" fill="#28A745"/>
<path d="M186.69 195.95C188.162 195.95 189.355 194.838 189.355 193.467C189.355 192.096 188.162 190.985 186.69 190.985C185.219 190.985 184.026 192.096 184.026 193.467C184.026 194.838 185.219 195.95 186.69 195.95Z" fill="#28A745"/>
<path d="M189.969 216.954C189.969 216.954 187.305 210.844 195.297 206.26L189.969 216.954Z" fill="#28A745"/>
<path d="M186.693 216.844C186.693 216.844 185.481 210.346 176.097 210.402L186.693 216.844Z" fill="#28A745"/>
<path d="M47.4342 51.0036C45.1629 51.0036 42.9426 50.2411 41.054 48.8125C39.1655 47.384 37.6936 45.3535 36.8244 42.9779C35.9552 40.6023 35.7277 37.9883 36.1709 35.4663C36.614 32.9444 37.7077 30.6279 39.3138 28.8096C40.9199 26.9914 42.9661 25.7532 45.1938 25.2516C47.4215 24.7499 49.7305 25.0074 51.8289 25.9914C53.9274 26.9754 55.7209 28.6418 56.9828 30.7798C58.2447 32.9177 58.9182 35.4313 58.9182 38.0027C58.9182 41.4507 57.7083 44.7575 55.5546 47.1957C53.401 49.6338 50.48 51.0036 47.4342 51.0036ZM47.4342 25.4505C45.2412 25.4505 43.0974 26.1867 41.274 27.566C39.4506 28.9453 38.0294 30.9058 37.1901 33.1995C36.3509 35.4932 36.1313 38.0171 36.5591 40.4521C36.987 42.8871 38.043 45.1238 39.5937 46.8793C41.1444 48.6348 43.1201 49.8303 45.271 50.3147C47.4219 50.799 49.6514 50.5505 51.6774 49.6004C53.7035 48.6503 55.4353 47.0414 56.6536 44.9771C57.872 42.9128 58.5223 40.4859 58.5223 38.0032C58.5223 36.3547 58.2355 34.7224 57.6783 33.1995C57.1211 31.6765 56.3043 30.2927 55.2747 29.1271C54.2451 27.9614 53.0227 27.0368 51.6775 26.406C50.3322 25.7751 48.8903 25.4505 47.4342 25.4505Z" fill="#3F3D56"/>
<path d="M160.777 51.0036C158.604 51.0036 156.48 50.2411 154.674 48.8125C152.867 47.384 151.46 45.3535 150.628 42.9779C149.797 40.6023 149.579 37.9883 150.003 35.4663C150.427 32.9444 151.473 30.6279 153.009 28.8096C154.546 26.9914 156.503 25.7532 158.634 25.2516C160.764 24.7499 162.973 25.0074 164.98 25.9914C166.988 26.9754 168.703 28.6418 169.91 30.7798C171.117 32.9177 171.761 35.4313 171.761 38.0027C171.761 41.4507 170.604 44.7575 168.544 47.1957C166.484 49.6338 163.69 51.0036 160.777 51.0036ZM160.777 25.4505C158.679 25.4505 156.628 26.1867 154.884 27.566C153.14 28.9453 151.781 30.9058 150.978 33.1995C150.175 35.4932 149.965 38.0171 150.374 40.4521C150.784 42.8871 151.794 45.1238 153.277 46.8793C154.76 48.6348 156.65 49.8303 158.708 50.3147C160.765 50.799 162.897 50.5505 164.835 49.6004C166.773 48.6503 168.43 47.0414 169.595 44.9771C170.761 42.9128 171.383 40.4859 171.383 38.0032C171.383 36.3547 171.108 34.7224 170.575 33.1995C170.042 31.6765 169.261 30.2927 168.276 29.1271C167.291 27.9614 166.122 27.0368 164.835 26.406C163.549 25.7751 162.169 25.4505 160.777 25.4505Z" fill="#3F3D56"/>
<path d="M201.834 21.002H6.87609C3.08081 21.0095 0.00519604 25.399 0 30.8166V138.196C0.00519604 143.613 3.08081 148 6.87609 148.01H201.834C205.629 148.003 208.705 143.613 208.71 138.196V30.8161C208.705 25.399 205.629 21.0115 201.834 21.0015V21.002ZM207.902 138.196C207.897 142.976 205.184 146.85 201.835 146.855H6.87609C3.52681 146.849 0.814044 142.976 0.808848 138.196V30.8161C0.812745 26.0358 3.52681 22.162 6.87609 22.1565H201.834C205.183 22.1625 207.896 26.0358 207.901 30.8161L207.902 138.196Z" fill="#3F3D56"/>
<path d="M48.9319 64.0045H13.9805V92.0064H48.9319V64.0045Z" fill="#F2F2F2"/>
<path d="M97.8635 64.0045H62.9121V92.0064H97.8635V64.0045Z" fill="#F2F2F2"/>
<path d="M145.797 64.0045H111.845V92.0064H145.797V64.0045Z" fill="#F2F2F2"/>
<path d="M194.729 64.0045H159.777V92.0064H194.729V64.0045Z" fill="#F2F2F2"/>
<path d="M48.9319 105.007H13.9805V133.009H48.9319V105.007Z" fill="#F2F2F2"/>
<path d="M97.8635 105.007H62.9121V133.009H97.8635V105.007Z" fill="#F2F2F2"/>
<path d="M145.797 105.007H111.845V133.009H145.797V105.007Z" fill="#F2F2F2"/>
<path d="M194.729 105.007H159.777V133.009H194.729V105.007Z" fill="#F2F2F2"/>
<path d="M74.2142 133.009L65.9082 120.1L68.1706 118.256L74.5287 128.138L98.8584 100.007L100.86 102.2L74.2142 133.009Z" fill="#28A745"/>
<path d="M123.146 92.0064L114.84 79.0969L117.102 77.2536L123.46 87.1348L147.79 59.0042L149.791 61.1969L123.146 92.0064Z" fill="#28A745"/>
<path d="M47.9331 0H46.9346V38.0027H47.9331V0Z" fill="#2F2E41"/>
<path d="M161.775 3.00024H160.776V38.0027H161.775V3.00024Z" fill="#2F2E41"/>
<path d="M321.941 217.527H163.902C163.824 217.531 163.745 217.521 163.671 217.497C163.597 217.472 163.53 217.434 163.472 217.384C163.415 217.334 163.37 217.273 163.338 217.206C163.307 217.139 163.291 217.067 163.291 216.994C163.291 216.921 163.307 216.849 163.338 216.781C163.37 216.714 163.415 216.654 163.472 216.604C163.53 216.554 163.597 216.516 163.671 216.491C163.745 216.466 163.824 216.456 163.902 216.461H321.941C322.019 216.456 322.098 216.466 322.171 216.491C322.245 216.516 322.313 216.554 322.37 216.604C322.428 216.654 322.473 216.714 322.504 216.781C322.536 216.849 322.552 216.921 322.552 216.994C322.552 217.067 322.536 217.139 322.504 217.206C322.473 217.273 322.428 217.334 322.37 217.384C322.313 217.434 322.245 217.472 322.171 217.497C322.098 217.521 322.019 217.531 321.941 217.527Z" fill="#3F3D56"/>
<path d="M26.2807 92.0064L17.9746 79.0969L20.2371 77.2536L26.5951 87.1348L50.9248 59.0042L52.926 61.1969L26.2807 92.0064Z" fill="#28A745"/>
<path d="M276.463 133.755C276.684 133.694 276.91 133.649 277.139 133.62L286.265 116.341L283.479 112.449L289.232 107.763L296.465 116.011L281.734 135.988C282.097 136.744 282.205 137.585 282.043 138.399C281.88 139.213 281.456 139.962 280.826 140.546C280.196 141.13 279.39 141.521 278.515 141.668C277.64 141.814 276.739 141.709 275.93 141.366C275.121 141.024 274.443 140.459 273.986 139.749C273.53 139.038 273.317 138.215 273.375 137.389C273.433 136.563 273.759 135.772 274.311 135.123C274.863 134.474 275.613 133.997 276.463 133.755Z" fill="#FFB8B8"/>
<path d="M292.041 110.153C291.917 110.275 291.774 110.379 291.618 110.464L282.281 115.507C281.851 115.74 281.339 115.803 280.859 115.684C280.378 115.565 279.968 115.273 279.718 114.872C279.692 114.83 279.668 114.787 279.646 114.743L275.104 105.803C274.91 105.427 274.869 104.998 274.986 104.596C275.104 104.194 275.373 103.844 275.744 103.611L281.532 99.9423C281.893 99.7133 282.329 99.6091 282.764 99.6476C283.199 99.6862 283.606 99.8652 283.915 100.154L292.004 107.718C292.349 108.04 292.545 108.474 292.552 108.929C292.559 109.383 292.375 109.822 292.04 110.153L292.041 110.153Z" fill="#CCCCCC"/>
<path d="M305.151 209.16L300.222 210.41L292.702 193.286L299.978 191.441L305.151 209.16Z" fill="#FFB8B8"/>
<path d="M296.319 209.988L305.825 207.578L307.454 213.154L291.961 217.082C291.529 215.603 291.745 214.024 292.562 212.694C293.38 211.363 294.73 210.389 296.318 209.987H296.318L296.319 209.988Z" fill="#2F2E41"/>
<path d="M263.009 212.666H257.899L255.469 194.303H263.009V212.666Z" fill="#FFB8B8"/>
<path d="M254.25 211.305H264.103V217.086H248.047C248.047 216.327 248.207 215.575 248.519 214.874C248.831 214.172 249.288 213.535 249.864 212.998C250.44 212.461 251.123 212.036 251.876 211.745C252.629 211.454 253.435 211.305 254.25 211.305H254.25Z" fill="#2F2E41"/>
<path d="M268.391 93.8471C274.044 93.8471 278.626 89.5772 278.626 84.3099C278.626 79.0427 274.044 74.7727 268.391 74.7727C262.739 74.7727 258.156 79.0427 258.156 84.3099C258.156 89.5772 262.739 93.8471 268.391 93.8471Z" fill="#FFB8B8"/>
<path d="M262.696 199.573H255.714C255.237 199.573 254.777 199.403 254.429 199.099C254.081 198.794 253.87 198.377 253.839 197.933C251.759 167.117 252.976 145.011 257.669 128.367C257.689 128.294 257.715 128.222 257.745 128.152L258.12 127.282C258.258 126.957 258.498 126.678 258.809 126.482C259.119 126.286 259.486 126.182 259.861 126.183H274.218C274.488 126.183 274.756 126.237 275.002 126.343C275.247 126.448 275.466 126.602 275.642 126.793L277.591 128.913C277.629 128.954 277.665 128.997 277.699 129.041C286.492 140.467 294.373 162.806 303.499 192.831C303.634 193.268 303.58 193.736 303.35 194.136C303.12 194.536 302.731 194.837 302.266 194.974L294.766 197.211C294.335 197.337 293.87 197.316 293.455 197.149C293.04 196.983 292.703 196.684 292.505 196.306L273.035 158.676C272.899 158.413 272.675 158.198 272.398 158.062C272.12 157.927 271.803 157.878 271.493 157.924C271.184 157.969 270.898 158.107 270.679 158.315C270.46 158.524 270.319 158.793 270.276 159.082L264.554 198.062C264.491 198.48 264.269 198.863 263.927 199.141C263.586 199.418 263.149 199.572 262.696 199.573Z" fill="#2F2E41"/>
<path d="M276.805 129.069H276.746L259.306 128.554C258.858 128.543 258.429 128.381 258.098 128.099C257.767 127.818 257.555 127.434 257.502 127.019C255.294 110.345 261.354 105.878 264.064 104.73C264.29 104.635 264.486 104.487 264.633 104.3C264.78 104.114 264.873 103.895 264.902 103.665L265.137 101.918C265.177 101.609 265.305 101.316 265.507 101.069C269.755 95.9413 275.556 94.2991 278.634 93.7773C279.123 93.6954 279.626 93.7979 280.034 94.062C280.442 94.3262 280.72 94.7305 280.808 95.1859C280.813 95.2146 280.818 95.2433 280.822 95.2722L281.173 97.7819C281.209 98.0212 281.311 98.2476 281.47 98.4385C290.329 109.23 280.46 125.165 278.392 128.249C278.223 128.5 277.989 128.706 277.711 128.849C277.434 128.993 277.122 129.068 276.805 129.069Z" fill="#CCCCCC"/>
<path d="M271.317 149.91L258.141 152.276L257.64 149.854L267.726 148.043L256.004 119.249L258.478 118.375L271.317 149.91Z" fill="#28A745"/>
<path d="M289.041 85.3835C286.758 82.3877 284.02 79.7168 280.913 77.4542C278.329 75.5744 275.454 73.968 272.283 73.1999C269.112 72.4318 265.608 72.5623 262.714 73.9956C259.82 75.4288 256.828 78.2766 256.81 81.3303C256.804 82.3116 257.072 83.6388 258.109 83.4691L258.409 83.5079L265.912 82.0957L269.108 92.4309C269.333 93.157 269.634 93.969 270.374 94.2784C271.07 94.5701 271.874 94.2951 272.582 94.021C272.698 93.9759 273.694 91.8923 273.694 91.8923C273.719 91.8272 273.762 91.7694 273.819 91.725C273.876 91.6807 273.945 91.6513 274.018 91.6399C274.091 91.6285 274.166 91.6355 274.235 91.6602C274.305 91.6849 274.366 91.7264 274.412 91.7805L275.004 92.4697C275.117 92.6016 275.272 92.6957 275.448 92.7377C275.623 92.7798 275.808 92.7675 275.976 92.7027L288.213 87.9424C288.777 87.723 289.407 87.4376 289.57 86.8882C289.724 86.3597 289.379 85.8285 289.041 85.3835Z" fill="#2F2E41"/>
<path d="M275.178 152.769C275.714 152.419 276.161 151.963 276.487 151.435C276.813 150.906 277.012 150.318 277.067 149.71C277.123 149.102 277.036 148.491 276.81 147.918C276.585 147.346 276.228 146.826 275.764 146.396L279.003 109.945L269.359 111.182L269.175 146.595C268.45 147.369 268.055 148.364 268.066 149.391C268.076 150.419 268.49 151.407 269.23 152.168C269.97 152.929 270.984 153.411 272.08 153.522C273.176 153.633 274.278 153.365 275.176 152.769L275.178 152.769Z" fill="#FFB8B8"/>
<path d="M279.634 115.194C279.453 115.194 279.273 115.17 279.1 115.122L268.746 112.284C268.51 112.22 268.29 112.112 268.098 111.968C267.907 111.824 267.747 111.646 267.629 111.445C267.511 111.243 267.437 111.022 267.411 110.794C267.385 110.566 267.407 110.335 267.477 110.115C267.491 110.068 267.508 110.023 267.527 109.977L271.358 100.754C271.518 100.364 271.823 100.041 272.217 99.8432C272.611 99.6456 273.069 99.5866 273.506 99.6772L280.346 101.063C280.773 101.149 281.154 101.372 281.424 101.692C281.693 102.013 281.834 102.411 281.822 102.818L281.504 113.494C281.491 113.948 281.288 114.38 280.939 114.697C280.59 115.014 280.121 115.192 279.634 115.194V115.194Z" fill="#CCCCCC"/>
</svg>
