<svg width="391" height="241" viewBox="0 0 391 241" fill="none" xmlns="http://www.w3.org/2000/svg">
<path d="M389.438 188.878H1.01947C0.74909 188.878 0.489798 188.77 0.298611 188.579C0.107423 188.387 0 188.128 0 187.857C0 187.586 0.107423 187.326 0.298611 187.135C0.489798 186.944 0.74909 186.836 1.01947 186.836H389.438C389.708 186.836 389.967 186.944 390.158 187.135C390.35 187.326 390.457 187.586 390.457 187.857C390.457 188.128 390.35 188.387 390.158 188.579C389.967 188.77 389.708 188.878 389.438 188.878Z" fill="#3F3D56"/>
<path d="M202.935 55.1323C218.137 55.1323 230.461 42.7906 230.461 27.5664C230.461 12.3422 218.137 0.000488281 202.935 0.000488281C187.733 0.000488281 175.409 12.3422 175.409 27.5664C175.409 42.7906 187.733 55.1323 202.935 55.1323Z" fill="#2F2E41"/>
<path d="M176.781 204.525L176.052 192.031L223.83 183.266L224.907 201.708L176.781 204.525Z" fill="#FFB8B8"/>
<path d="M179.096 182.896L180.502 206.994L165.351 207.881L163.059 168.61C165.049 168.494 167.042 168.771 168.925 169.426C170.807 170.081 172.543 171.1 174.032 172.427C175.521 173.754 176.735 175.361 177.603 177.157C178.472 178.953 178.979 180.904 179.096 182.896Z" fill="#2F2E41"/>
<path d="M197.562 204.411L189.626 214.08L148.606 188.026L160.319 173.755L197.562 204.411Z" fill="#FFB8B8"/>
<path d="M181.198 218.716L196.504 200.068L208.228 209.719L183.286 240.109C181.746 238.842 180.471 237.283 179.533 235.522C178.595 233.761 178.012 231.832 177.818 229.846C177.624 227.859 177.823 225.854 178.403 223.944C178.983 222.035 179.933 220.258 181.198 218.716Z" fill="#2F2E41"/>
<path d="M174.723 159.444L169.3 185.048C169.175 185.638 169.182 186.248 169.32 186.834C169.458 187.421 169.725 187.969 170.1 188.441C170.475 188.912 170.949 189.294 171.489 189.56C172.029 189.826 172.621 189.969 173.223 189.979L226.539 190.84C227.14 190.85 227.736 190.726 228.284 190.478C228.831 190.231 229.318 189.865 229.708 189.407C230.098 188.949 230.382 188.41 230.54 187.829C230.697 187.248 230.725 186.64 230.621 186.047L225.957 159.581C225.791 158.636 225.297 157.779 224.562 157.162C223.828 156.545 222.9 156.207 221.941 156.207H178.712C177.778 156.207 176.871 156.529 176.145 157.118C175.419 157.707 174.917 158.528 174.723 159.444Z" fill="#2F2E41"/>
<path d="M183.565 168.459C183.565 168.459 131.572 135.788 121.377 153.144C116.28 161.822 118.828 170.245 122.651 176.499C126.199 182.192 131.292 186.757 137.334 189.66L179.487 210.318L194.779 193.983L184.584 184.794L183.565 168.459Z" fill="#2F2E41"/>
<path d="M210.071 163.354C210.071 163.354 277.356 143.956 264.103 180.71C250.85 217.465 200.896 203.171 200.896 203.171L195.799 187.857L213.13 175.605L210.071 163.354Z" fill="#2F2E41"/>
<path d="M203.28 58.9366C217.109 58.9366 228.32 47.7098 228.32 33.8608C228.32 20.0118 217.109 8.78503 203.28 8.78503C189.452 8.78503 178.241 20.0118 178.241 33.8608C178.241 47.7098 189.452 58.9366 203.28 58.9366Z" fill="#FFB8B8"/>
<path d="M204.592 167.406C194.188 167.248 183.837 165.882 173.746 163.336L173.448 163.254L159.476 98.888C158.219 93.2319 159.073 87.3106 161.878 82.2425C164.683 77.1744 169.244 73.3103 174.699 71.3799C191.551 65.3248 209.918 64.9575 226.998 70.334H226.998C232.729 72.1835 237.553 76.129 240.507 81.3832C243.462 86.6374 244.329 92.814 242.937 98.6806L227.331 163.2L227.111 163.305C220.625 166.382 212.515 167.406 204.592 167.406Z" fill="#CCCCCC"/>
<path d="M185.823 172.406C186.33 170.994 187.141 169.71 188.197 168.646C189.254 167.581 190.53 166.761 191.937 166.244C193.344 165.727 194.847 165.525 196.341 165.653C197.834 165.78 199.281 166.234 200.58 166.983L228.092 143.067L230.581 161.861L204.074 181.691C202.674 183.793 200.553 185.308 198.112 185.949C195.671 186.589 193.08 186.311 190.831 185.167C188.581 184.022 186.829 182.091 185.906 179.739C184.983 177.387 184.953 174.778 185.823 172.406Z" fill="#FFB8B8"/>
<path d="M212.062 177.622C211.615 177.622 211.17 177.557 210.741 177.428C210.045 177.225 209.407 176.858 208.882 176.358C208.356 175.858 207.958 175.239 207.721 174.553L204.4 165.131C204.089 164.26 204.05 163.315 204.287 162.421C204.524 161.528 205.026 160.727 205.728 160.125L243.212 137.589L228.436 71.5723L228.812 71.4816C228.965 71.4437 244.104 67.993 250.308 84.5606C254.652 96.1641 270.729 121.394 269.595 138.443C269.38 141.853 268.023 145.091 265.744 147.634C263.464 150.177 260.396 151.877 257.033 152.458L214.839 176.668C214.045 177.285 213.068 177.621 212.062 177.622Z" fill="#CCCCCC"/>
<path d="M216.266 170.167C215.759 168.754 214.948 167.471 213.892 166.406C212.835 165.341 211.559 164.522 210.152 164.005C208.745 163.487 207.242 163.286 205.749 163.413C204.255 163.541 202.808 163.995 201.509 164.743L173.997 140.828L171.508 159.622L198.015 179.451C199.415 181.553 201.536 183.068 203.977 183.709C206.418 184.35 209.009 184.071 211.258 182.927C213.508 181.783 215.26 179.852 216.183 177.5C217.106 175.148 217.136 172.539 216.266 170.167Z" fill="#FFB8B8"/>
<path d="M192.788 177.622C191.782 177.621 190.806 177.285 190.011 176.668L144.759 154.5C141.396 153.919 138.328 152.219 136.049 149.676C133.769 147.133 132.412 143.895 132.197 140.485C131.063 123.436 150.198 96.1639 154.543 84.5605C160.746 67.9928 175.886 71.4426 176.039 71.4814L176.415 71.5722L158.58 139.63L199.123 160.125C199.824 160.727 200.327 161.527 200.564 162.421C200.801 163.315 200.761 164.26 200.451 165.13L197.13 174.552C196.892 175.238 196.494 175.857 195.969 176.358C195.443 176.858 194.806 177.225 194.11 177.428C193.681 177.556 193.236 177.622 192.788 177.622Z" fill="#CCCCCC"/>
<path d="M246.771 187.857H156.039C154.147 187.855 152.333 187.101 150.995 185.761C149.657 184.422 148.905 182.605 148.902 180.71V130.683C148.905 128.789 149.657 126.972 150.995 125.632C152.333 124.293 154.147 123.539 156.039 123.537H246.771C248.663 123.539 250.477 124.293 251.815 125.632C253.153 126.972 253.906 128.789 253.908 130.683V180.71C253.906 182.605 253.153 184.422 251.815 185.761C250.477 187.101 248.663 187.855 246.771 187.857Z" fill="#28A745"/>
<path d="M177.99 32.8404C176.506 29.0707 178.941 24.5784 182.553 22.7523C186.165 20.9262 190.524 21.2735 194.387 22.477C197.634 23.4884 200.677 25.0558 203.845 26.2938C206.967 27.6797 210.379 28.2881 213.787 28.0671C217.166 27.685 220.529 25.7876 221.912 22.6765C223.345 19.4517 222.37 15.5163 220.163 12.7642C217.815 10.1036 214.776 8.1474 211.384 7.11339C203.934 4.485 195.329 4.40816 188.413 8.22878C181.497 12.0494 176.796 20.1844 178.226 27.9639" fill="#2F2E41"/>
<path d="M33.2986 175.951C34.5581 162.367 38.0368 149.082 43.5957 136.627C45.1451 133.161 46.8503 129.771 48.7116 126.457C48.8049 126.284 48.8274 126.081 48.7743 125.892C48.7212 125.702 48.5966 125.541 48.4269 125.441C48.2571 125.342 48.0555 125.312 47.8645 125.359C47.6734 125.406 47.508 125.525 47.403 125.691C40.6345 137.76 35.8927 150.861 33.3672 164.47C32.6647 168.27 32.1366 172.097 31.7831 175.951C31.6933 176.924 33.2093 176.917 33.2986 175.951Z" fill="#E6E6E6"/>
<path d="M52.3819 129.891C57.6825 129.891 61.9796 125.588 61.9796 120.28C61.9796 114.971 57.6825 110.668 52.3819 110.668C47.0812 110.668 42.7842 114.971 42.7842 120.28C42.7842 125.588 47.0812 129.891 52.3819 129.891Z" fill="#28A745"/>
<path d="M34.2805 176.207C35.0976 167.394 37.3544 158.776 40.9608 150.695C41.9659 148.447 43.0722 146.247 44.2796 144.098C44.3402 143.985 44.3548 143.854 44.3203 143.731C44.2858 143.608 44.205 143.503 44.0949 143.439C43.9848 143.374 43.854 143.355 43.7301 143.385C43.6062 143.416 43.4989 143.493 43.4308 143.601C39.0397 151.43 35.9634 159.929 34.325 168.758C33.8693 171.224 33.5267 173.707 33.2974 176.207C33.2391 176.838 34.2226 176.834 34.2805 176.207H34.2805Z" fill="#E6E6E6"/>
<path d="M46.661 145.677C50.0998 145.677 52.8875 142.885 52.8875 139.441C52.8875 135.998 50.0998 133.206 46.661 133.206C43.2223 133.206 40.4346 135.998 40.4346 139.441C40.4346 142.885 43.2223 145.677 46.661 145.677Z" fill="#28A745"/>
<path d="M33.0396 175.618C28.2714 168.166 24.7576 159.98 22.6386 151.388C22.05 148.996 21.5717 146.58 21.2035 144.142C21.1823 144.016 21.113 143.903 21.0103 143.827C20.9076 143.751 20.7795 143.718 20.653 143.735C20.5266 143.752 20.4117 143.818 20.3326 143.918C20.2535 144.018 20.2163 144.146 20.229 144.273C21.5753 153.151 24.3696 161.747 28.5 169.718C29.6549 171.942 30.9097 174.111 32.2645 176.224C32.6058 176.757 33.3788 176.148 33.0396 175.618Z" fill="#E6E6E6"/>
<path d="M20.2206 145.239C23.6594 145.239 26.4471 142.447 26.4471 139.003C26.4471 135.56 23.6594 132.768 20.2206 132.768C16.7818 132.768 13.9941 135.56 13.9941 139.003C13.9941 142.447 16.7818 145.239 20.2206 145.239Z" fill="#28A745"/>
<path d="M13.9248 181.135V168.884C13.9262 167.666 14.41 166.498 15.27 165.636C16.1301 164.775 17.2961 164.291 18.5124 164.289H47.0576C48.2739 164.291 49.4399 164.775 50.3 165.636C51.16 166.498 51.6438 167.666 51.6452 168.884V181.135C51.6438 182.353 51.16 183.521 50.3 184.382C49.4399 185.244 48.2739 185.728 47.0576 185.729H18.5124C17.2961 185.728 16.1301 185.244 15.27 184.382C14.41 183.521 13.9262 182.353 13.9248 181.135Z" fill="#F2F2F2"/>
<path d="M320.531 196.434C320.531 203.149 315.095 206.201 308.39 206.201C301.685 206.201 296.249 203.149 296.249 196.434C296.249 189.719 298.947 181.884 308.39 184.586C317.833 180.533 320.531 189.719 320.531 196.434Z" fill="#FF6584"/>
<path d="M307.798 187.731C307.326 187.732 306.869 187.56 306.515 187.249C306.16 186.937 305.93 186.506 305.87 186.037C305.468 182.687 303.252 176.126 302.318 173.461L302.318 173.46C302.224 173.195 302.195 172.911 302.234 172.632C302.273 172.354 302.379 172.089 302.543 171.86C302.699 171.656 302.897 171.487 303.124 171.365C303.35 171.243 303.6 171.17 303.856 171.152C304.113 171.133 304.37 171.169 304.612 171.258C304.853 171.346 305.074 171.484 305.258 171.664C305.422 171.837 305.55 172.042 305.632 172.266C305.714 172.49 305.749 172.729 305.735 172.967C305.552 176.388 308.042 181.915 309.543 184.907C309.684 185.189 309.756 185.501 309.75 185.816C309.745 186.132 309.663 186.441 309.511 186.718C309.36 186.995 309.143 187.231 308.881 187.406C308.618 187.58 308.317 187.688 308.004 187.72C307.935 187.728 307.867 187.731 307.798 187.731Z" fill="#3F3D56"/>
<path d="M316.781 180.185C320.996 176.731 317.689 169.661 312.414 171.018C311.705 171.188 311.05 171.538 310.514 172.034C307.279 175.094 306.777 182.926 306.777 182.926C306.777 182.926 312.491 183.701 316.781 180.185Z" fill="#3F3D56"/>
<path d="M208.535 172.987C208.345 173.066 208.128 173.075 207.931 173.01C207.735 172.945 207.575 172.813 207.487 172.642L202.948 163.851C202.86 163.68 202.851 163.485 202.923 163.309C202.995 163.132 203.142 162.989 203.332 162.909C203.522 162.83 203.739 162.822 203.935 162.887C204.132 162.951 204.292 163.084 204.38 163.254L208.919 172.045C209.007 172.216 209.016 172.411 208.944 172.588C208.872 172.764 208.725 172.908 208.535 172.987Z" fill="white"/>
<path d="M203.68 165.053C202.033 165.818 200.197 166.077 198.404 165.797C196.611 165.517 194.94 164.711 193.605 163.48C192.269 162.25 191.327 160.651 190.899 158.884C190.471 157.118 190.576 155.265 191.2 153.558C191.824 151.852 192.94 150.369 194.405 149.297C195.871 148.225 197.622 147.613 199.435 147.537C201.248 147.461 203.044 147.926 204.593 148.871C206.143 149.817 207.378 151.202 208.142 152.851C209.164 155.062 209.267 157.588 208.431 159.876C207.594 162.163 205.886 164.025 203.68 165.053ZM196.921 150.466C195.686 151.04 194.649 151.967 193.94 153.131C193.232 154.295 192.884 155.643 192.941 157.005C192.998 158.367 193.456 159.681 194.259 160.782C195.062 161.883 196.173 162.72 197.451 163.189C198.729 163.658 200.118 163.736 201.441 163.415C202.763 163.093 203.961 162.386 204.883 161.383C205.805 160.38 206.408 159.126 206.618 157.779C206.828 156.432 206.634 155.054 206.061 153.817C205.291 152.161 203.896 150.878 202.183 150.249C200.469 149.621 198.577 149.699 196.921 150.466Z" fill="white"/>
</svg>
