<svg width="14" height="14" viewBox="0 0 14 14" fill="none" xmlns="http://www.w3.org/2000/svg">
<path d="M6.11501 0.455432L4.44301 3.84543L0.702011 4.39043C0.55044 4.41247 0.408072 4.47652 0.291037 4.57532C0.174002 4.67412 0.0869777 4.80373 0.0398252 4.94946C-0.00732736 5.09518 -0.0127236 5.2512 0.0242481 5.39984C0.0612198 5.54847 0.139081 5.68378 0.249011 5.79043L2.95901 8.42643L2.31901 12.1514C2.2933 12.302 2.31021 12.4567 2.36781 12.5982C2.42541 12.7396 2.52141 12.8621 2.64498 12.9519C2.76854 13.0417 2.91475 13.0951 3.06708 13.1061C3.2194 13.1172 3.37178 13.0854 3.50701 13.0144L6.84901 11.2554L10.195 13.0144C10.3302 13.0854 10.4826 13.1172 10.6349 13.1061C10.7873 13.0951 10.9335 13.0417 11.057 12.9519C11.1806 12.8621 11.2766 12.7396 11.3342 12.5982C11.3918 12.4567 11.4087 12.302 11.383 12.1514L10.743 8.42643L13.449 5.78943C13.5589 5.68278 13.6368 5.54747 13.6738 5.39884C13.7107 5.2502 13.7053 5.09418 13.6582 4.94846C13.611 4.80273 13.524 4.67312 13.407 4.57432C13.2899 4.47552 13.1476 4.41147 12.996 4.38943L9.25901 3.84543L7.58401 0.455432C7.51612 0.318662 7.4114 0.203562 7.28163 0.123098C7.15186 0.0426332 7.0022 0 6.84951 0C6.69682 0 6.54716 0.0426332 6.41739 0.123098C6.28762 0.203562 6.1829 0.318662 6.11501 0.455432Z" fill="#FFC400"/>
</svg>
